<svg width="32" height="28" viewBox="0 0 32 28" fill="none" xmlns="http://www.w3.org/2000/svg">
<path fill-rule="evenodd" clip-rule="evenodd" d="M13.8767 2.37991V9.4922C13.8767 10.6194 13.4289 11.7004 12.6319 12.4974L9.26442 15.8649C11.7398 15.6887 14.2419 16.1822 16.4769 17.2997C18.975 18.5487 21.866 18.8762 24.5697 18.2003L24.9735 18.0994L19.3715 12.4974C18.5745 11.7004 18.1267 10.6194 18.1267 9.49219V2.37991C17.4242 2.3352 16.7157 2.3125 16.0017 2.3125C15.2877 2.3125 14.5791 2.3352 13.8767 2.37991ZM20.2517 2.57566C20.7804 2.57632 21.2389 2.18263 21.306 1.64452C21.3786 1.06223 20.9655 0.531324 20.3832 0.458713C20.0196 0.413382 19.6544 0.373616 19.2876 0.339507C18.2055 0.238902 17.1095 0.1875 16.0017 0.1875C14.8939 0.1875 13.7979 0.238902 12.7158 0.339507C12.349 0.373616 11.9837 0.413382 11.6202 0.458713C11.0379 0.531324 10.6247 1.06223 10.6974 1.64452C10.7645 2.18263 11.223 2.57632 11.7517 2.57566V9.4922C11.7517 10.0558 11.5278 10.5963 11.1293 10.9948L2.21394 19.9102C-0.0826783 22.2068 0.934692 26.2505 4.29772 26.8247C8.10265 27.4743 12.0131 27.8125 16.0017 27.8125C19.9903 27.8125 23.9007 27.4743 27.7057 26.8247C31.0687 26.2505 32.0861 22.2068 29.7895 19.9102L20.8741 10.9948C20.4756 10.5963 20.2517 10.0558 20.2517 9.49219V2.57566Z" fill="#262626"/>
</svg>
