<svg width="32" height="30" viewBox="0 0 32 30" fill="none" xmlns="http://www.w3.org/2000/svg">
<path fill-rule="evenodd" clip-rule="evenodd" d="M29.1802 0.125C28.6484 0.125 28.1285 0.28241 27.6861 0.577395L20.4908 5.37422C18.5565 6.66379 16.8068 8.197 15.2819 9.9303C18.2782 11.303 20.6959 13.7207 22.0685 16.717C23.8018 15.1921 25.3351 13.4424 26.6246 11.508L31.4214 4.31279C31.7164 3.87032 31.8738 3.35042 31.8738 2.81863C31.8738 1.33098 30.6679 0.125 29.1802 0.125ZM17.4232 19.9936C18.4806 19.4062 19.4935 18.7489 20.4557 18.0276C19.2635 15.0851 16.9137 12.7353 13.9713 11.5431C13.2499 12.5054 12.5927 13.5183 12.0052 14.5757L11.6107 15.2859C14.0707 15.9895 16.0093 17.9282 16.7129 20.3882L17.4232 19.9936ZM9.56134 17.125C6.62729 17.125 4.24884 19.5035 4.24884 22.4375C4.24884 23.6111 3.29745 24.5625 2.12384 24.5625C2.07572 24.5625 2.02783 24.5609 1.98025 24.5577C1.58903 24.5319 1.21537 24.7236 1.00816 25.0564C0.800953 25.3893 0.793886 25.8092 0.989775 26.1488C2.27299 28.3736 4.67867 29.875 7.43634 29.875C11.544 29.875 14.8738 26.5451 14.8738 22.4375C14.8738 19.5035 12.4954 17.125 9.56134 17.125Z" fill="#262626"/>
</svg>
