<svg width="30" height="30" viewBox="0 0 30 30" fill="none" xmlns="http://www.w3.org/2000/svg">
<path fill-rule="evenodd" clip-rule="evenodd" d="M10.75 4.375C11.2244 4.375 11.6413 4.68948 11.7716 5.14561L12.9236 9.17771C13.4279 10.9426 14.8074 12.3221 16.5723 12.8264L20.6044 13.9784C21.0605 14.1087 21.375 14.5256 21.375 15C21.375 15.4744 21.0605 15.8913 20.6044 16.0216L16.5723 17.1736C14.8074 17.6779 13.4279 19.0574 12.9236 20.8223L11.7716 24.8544C11.6413 25.3105 11.2244 25.625 10.75 25.625C10.2756 25.625 9.85871 25.3105 9.72838 24.8544L8.57635 20.8223C8.07211 19.0574 6.69256 17.6779 4.92771 17.1736L0.895609 16.0216C0.439476 15.8913 0.125 15.4744 0.125 15C0.125 14.5256 0.439476 14.1087 0.895609 13.9784L4.92771 12.8264C6.69257 12.3221 8.07211 10.9426 8.57635 9.17771L9.72838 5.14561C9.85871 4.68948 10.2756 4.375 10.75 4.375Z" fill="#262626"/>
<path fill-rule="evenodd" clip-rule="evenodd" d="M23.5 0.125C23.9875 0.125 24.4125 0.456816 24.5308 0.929806L24.8975 2.39671C25.2306 3.72908 26.2709 4.7694 27.6033 5.1025L29.0702 5.46922C29.5432 5.58747 29.875 6.01245 29.875 6.5C29.875 6.98755 29.5432 7.41253 29.0702 7.53078L27.6033 7.8975C26.2709 8.2306 25.2306 9.27092 24.8975 10.6033L24.5308 12.0702C24.4125 12.5432 23.9875 12.875 23.5 12.875C23.0125 12.875 22.5875 12.5432 22.4692 12.0702L22.1025 10.6033C21.7694 9.27092 20.7291 8.2306 19.3967 7.8975L17.9298 7.53078C17.4568 7.41253 17.125 6.98755 17.125 6.5C17.125 6.01245 17.4568 5.58747 17.9298 5.46922L19.3967 5.1025C20.7291 4.7694 21.7694 3.72908 22.1025 2.39671L22.4692 0.929806C22.5875 0.456816 23.0125 0.125 23.5 0.125Z" fill="#262626"/>
<path fill-rule="evenodd" clip-rule="evenodd" d="M21.375 19.25C21.8323 19.25 22.2384 19.5426 22.383 19.9765L22.9415 21.652C23.153 22.2866 23.6509 22.7845 24.2855 22.996L25.961 23.5545C26.3949 23.6991 26.6875 24.1052 26.6875 24.5625C26.6875 25.0198 26.3949 25.4259 25.961 25.5705L24.2855 26.129C23.6509 26.3405 23.153 26.8384 22.9415 27.473L22.383 29.1485C22.2384 29.5824 21.8323 29.875 21.375 29.875C20.9177 29.875 20.5116 29.5824 20.367 29.1485L19.8085 27.473C19.597 26.8384 19.0991 26.3405 18.4645 26.129L16.789 25.5705C16.3551 25.4259 16.0625 25.0198 16.0625 24.5625C16.0625 24.1052 16.3551 23.6991 16.789 23.5545L18.4645 22.996C19.0991 22.7845 19.597 22.2866 19.8085 21.652L20.367 19.9765C20.5116 19.5426 20.9177 19.25 21.375 19.25Z" fill="#262626"/>
</svg>
