<svg width="25" height="31" viewBox="0 0 25 31" fill="none" xmlns="http://www.w3.org/2000/svg">
<path fill-rule="evenodd" clip-rule="evenodd" d="M24.2648 0.339264C24.531 0.540037 24.6875 0.854107 24.6875 1.18751V6.47654C24.6879 6.49258 24.6879 6.50858 24.6875 6.52454V21.0957C24.6875 22.9932 23.4296 24.6609 21.6051 25.1821L19.7351 25.7164C17.4248 26.3765 15.125 24.6418 15.125 22.239C15.125 20.6243 16.1954 19.2052 17.748 18.7616L21.0213 17.8264C21.9335 17.5658 22.5625 16.7319 22.5625 15.7832V7.9086L9.8125 11.5515V25.3457C9.8125 27.2432 8.55459 28.9109 6.73006 29.4321L4.86009 29.9664C2.54978 30.6265 0.25 28.8918 0.25 26.489C0.25 24.8743 1.32042 23.4552 2.87301 23.0116L6.14628 22.0764C7.05855 21.8158 7.6875 20.9819 7.6875 20.0332V10.7735C7.68713 10.7574 7.68714 10.7414 7.6875 10.7255V5.43751C7.6875 4.96312 8.00198 4.54621 8.45811 4.41589L23.3331 0.16589C23.6537 0.0742972 23.9987 0.13849 24.2648 0.339264Z" fill="#262626"/>
</svg>
