<svg width="35" height="34" viewBox="0 0 35 34" fill="none" xmlns="http://www.w3.org/2000/svg">
<path d="M26.3643 3.1875C24.8973 3.1875 23.708 4.37674 23.708 5.84375V28.1562C23.708 29.6233 24.8973 30.8125 26.3643 30.8125H27.4268C28.8938 30.8125 30.083 29.6233 30.083 28.1562V5.84375C30.083 4.37674 28.8938 3.1875 27.4268 3.1875H26.3643Z" fill="#262626"/>
<path d="M14.1455 12.2188C14.1455 10.7517 15.3348 9.5625 16.8018 9.5625H17.8643C19.3313 9.5625 20.5205 10.7517 20.5205 12.2188V28.1562C20.5205 29.6233 19.3313 30.8125 17.8643 30.8125H16.8018C15.3348 30.8125 14.1455 29.6233 14.1455 28.1562V12.2188Z" fill="#262626"/>
<path d="M4.58301 18.5938C4.58301 17.1267 5.77225 15.9375 7.23926 15.9375H8.30176C9.76876 15.9375 10.958 17.1267 10.958 18.5938V28.1562C10.958 29.6233 9.76876 30.8125 8.30176 30.8125H7.23926C5.77225 30.8125 4.58301 29.6233 4.58301 28.1562V18.5938Z" fill="#262626"/>
</svg>
