<svg width="34" height="34" viewBox="0 0 34 34" fill="none" xmlns="http://www.w3.org/2000/svg">
<path fill-rule="evenodd" clip-rule="evenodd" d="M3.1875 19.125C3.1875 12.6702 8.42017 7.4375 14.875 7.4375C15.4618 7.4375 15.9375 7.9132 15.9375 8.5V18.0625H25.5C26.0868 18.0625 26.5625 18.5382 26.5625 19.125C26.5625 25.5798 21.3298 30.8125 14.875 30.8125C8.42017 30.8125 3.1875 25.5798 3.1875 19.125Z" fill="#262626"/>
<path fill-rule="evenodd" clip-rule="evenodd" d="M18.0625 4.25C18.0625 3.6632 18.5382 3.1875 19.125 3.1875C25.5798 3.1875 30.8125 8.42017 30.8125 14.875C30.8125 15.4618 30.3368 15.9375 29.75 15.9375H19.125C18.5382 15.9375 18.0625 15.4618 18.0625 14.875V4.25Z" fill="#262626"/>
</svg>
