<svg width="28" height="28" viewBox="0 0 28 28" fill="none" xmlns="http://www.w3.org/2000/svg">
<path fill-rule="evenodd" clip-rule="evenodd" d="M24.5527 8.96825L20.216 12.5821C20.428 13.5147 20.428 14.4853 20.216 15.4179L24.5527 19.0318C26.0658 15.8583 26.0658 12.1417 24.5527 8.96825ZM19.0318 24.5527L15.4179 20.216C14.4853 20.428 13.5147 20.428 12.5821 20.216L8.96825 24.5527C12.1417 26.0658 15.8583 26.0658 19.0318 24.5527ZM3.44728 19.0318L7.78395 15.4179C7.57201 14.4853 7.57202 13.5147 7.78396 12.5821L3.44728 8.96825C1.93424 12.1417 1.93424 15.8583 3.44728 19.0318ZM8.96825 3.44728L12.5821 7.78395C13.5147 7.57201 14.4853 7.57201 15.4179 7.78395L19.0318 3.44728C15.8583 1.93424 12.1417 1.93424 8.96825 3.44728ZM21.2328 2.2292C22.1351 2.78461 22.9866 3.45281 23.7669 4.23309C24.5472 5.01336 25.2154 5.86487 25.7708 6.76719C28.4931 11.1898 28.4931 16.8102 25.7708 21.2328C25.2154 22.1351 24.5472 22.9866 23.7669 23.7669C22.9866 24.5472 22.1351 25.2154 21.2328 25.7708C16.8102 28.4931 11.1898 28.4931 6.76719 25.7708C5.86487 25.2154 5.01336 24.5472 4.23309 23.7669C3.45281 22.9866 2.78461 22.1351 2.2292 21.2328C-0.493065 16.8102 -0.493067 11.1898 2.2292 6.76719C2.78461 5.86487 3.45281 5.01336 4.23309 4.23309C5.01336 3.45281 5.86487 2.78461 6.76719 2.2292C11.1898 -0.493066 16.8102 -0.493066 21.2328 2.2292ZM17.0052 10.9948C16.544 10.5336 16.0057 10.202 15.4329 9.99751C14.5086 9.6675 13.4914 9.6675 12.5671 9.99751C11.9943 10.202 11.456 10.5336 10.9948 10.9948C10.5336 11.456 10.202 11.9943 9.99751 12.5671C9.6675 13.4914 9.6675 14.5086 9.99751 15.4329C10.202 16.0057 10.5336 16.544 10.9948 17.0052C11.456 17.4664 11.9943 17.798 12.5671 18.0025C13.4914 18.3325 14.5086 18.3325 15.4329 18.0025C16.0057 17.798 16.544 17.4664 17.0052 17.0052C17.4664 16.544 17.798 16.0057 18.0025 15.4329C18.3325 14.5086 18.3325 13.4914 18.0025 12.5671C17.798 11.9943 17.4664 11.456 17.0052 10.9948Z" fill="#262626"/>
</svg>
