<svg width="34" height="18" viewBox="0 0 34 18" fill="none" xmlns="http://www.w3.org/2000/svg">
<path d="M17.0056 17.4669C23.6009 17.4669 28.2944 14.9118 28.2944 11.1624V5.63208C28.2944 2.31393 24.3016 0.5 17.0056 0.5C9.69845 0.5 5.7056 2.31393 5.7056 5.63208V11.1624C5.7056 14.9118 10.3991 17.4669 17.0056 17.4669ZM10.9774 6.60541C10.9774 6.10769 11.3889 5.68738 11.9006 5.68738H22.1106C22.6334 5.68738 23.0448 6.10769 23.0448 6.60541C23.0448 7.11419 22.6334 7.53449 22.1106 7.53449H11.9006C11.3889 7.53449 10.9774 7.11419 10.9774 6.60541ZM10.9774 10.8748C10.9774 10.366 11.3889 9.94567 11.9006 9.94567H22.1106C22.6334 9.94567 23.0448 10.366 23.0448 10.8748C23.0448 11.3835 22.6334 11.7927 22.1106 11.7927H11.9006C11.3889 11.7927 10.9774 11.3835 10.9774 10.8748ZM0 7.76676C0 11.3283 2.60256 13.8169 6.50638 13.8169H7.22932V12.0362H6.32843C3.62578 12.0362 1.79065 10.2443 1.79065 7.76676C1.79065 6.53905 2.44684 5.78693 3.6369 5.78693H6.77331V4.00618H3.6369C1.33464 4.00618 0 5.42193 0 7.76676ZM34 7.76676C34 5.42193 32.6765 4.00618 30.3631 4.00618H27.2267V5.78693H30.3631C31.5532 5.78693 32.2094 6.53905 32.2094 7.76676C32.2094 10.2443 30.3742 12.0362 27.6715 12.0362H26.7707V13.8169H27.5048C31.3974 13.8169 34 11.3283 34 7.76676Z" fill="#262626"/>
</svg>
