<svg width="32" height="28" viewBox="0 0 32 28" fill="none" xmlns="http://www.w3.org/2000/svg">
<path d="M15.5747 0.974129C15.8459 0.855629 16.1543 0.855629 16.4255 0.974129C21.6938 3.27596 26.6869 6.08983 31.3418 9.35268C31.6787 9.5888 31.849 9.99817 31.779 10.4036C31.709 10.8089 31.4112 11.1375 31.0147 11.2469C30.0444 11.5148 29.0825 11.8032 28.1292 12.1106C24.2602 13.3584 20.5358 14.9284 16.9876 16.7891L16.983 16.7915C16.8221 16.8759 16.6616 16.9609 16.5015 17.0464C16.1886 17.2136 15.8129 17.2136 15.5 17.0464C15.3384 16.96 15.1763 16.8742 15.0139 16.7891C13.2594 15.869 11.4618 15.0201 9.625 14.246V13.9291C9.625 13.743 9.72051 13.5779 9.86829 13.4883C12.0005 12.1966 14.2 11.0046 16.46 9.91906C16.989 9.66499 17.2118 9.03023 16.9577 8.50128C16.7037 7.97234 16.0689 7.7495 15.54 8.00357C13.2177 9.11902 10.9579 10.3437 8.7672 11.6709C8.12491 12.06 7.69313 12.6968 7.5511 13.4103C6.33996 12.9444 5.1129 12.5105 3.87091 12.11C2.91774 11.8026 1.95579 11.5147 0.985521 11.2469C0.588968 11.1375 0.291236 10.8089 0.221223 10.4035C0.15121 9.99815 0.3215 9.58879 0.658369 9.35266C5.31331 6.08981 10.3064 3.27596 15.5747 0.974129Z" fill="#262626"/>
<path d="M17.5029 18.9207C20.958 17.0746 24.588 15.5139 28.3616 14.27C28.5517 16.2743 28.6732 18.2985 28.7235 20.3402C28.7343 20.7783 28.475 21.1781 28.0706 21.3469C24.0315 23.0332 20.1896 25.0982 16.5892 27.4975C16.2324 27.7353 15.7676 27.7353 15.4108 27.4975C11.8105 25.0982 7.96854 23.0332 3.92943 21.3469C3.52506 21.1781 3.26581 20.7783 3.2766 20.3402C3.32691 18.2984 3.44835 16.274 3.63855 14.2695C4.9433 14.6996 6.23088 15.1675 7.5 15.672V17.4718C6.86484 17.8392 6.4375 18.5259 6.4375 19.3125C6.4375 20.0142 6.77761 20.6364 7.30198 21.0234C7.17517 21.5626 6.98748 22.0903 6.73892 22.5956C7.38024 22.8983 8.01607 23.2107 8.64622 23.5326C9.00512 22.8027 9.26534 22.0366 9.42687 21.2543C10.1697 20.9232 10.6875 20.1783 10.6875 19.3125C10.6875 18.5259 10.2602 17.8392 9.625 17.4718V16.5583C11.2845 17.2834 12.91 18.0719 14.4986 18.9207C15.4372 19.4222 16.5643 19.4222 17.5029 18.9207Z" fill="#262626"/>
<path d="M5.32148 24.5716C5.91525 23.9778 6.38795 23.309 6.73892 22.5956C7.38024 22.8983 8.01607 23.2107 8.64622 23.5326C8.19494 24.4504 7.58732 25.3109 6.82409 26.0742C6.40915 26.4891 5.73642 26.4891 5.32148 26.0742C4.90655 25.6592 4.90655 24.9865 5.32148 24.5716Z" fill="#262626"/>
</svg>
