<svg width="29" height="28" viewBox="0 0 29 28" fill="none" xmlns="http://www.w3.org/2000/svg">
<path fill-rule="evenodd" clip-rule="evenodd" d="M1.25 0.1875C1.8368 0.1875 2.3125 0.663197 2.3125 1.25V2.01418L4.9166 1.36315C8.11535 0.563462 11.4947 0.934417 14.4438 2.40897L14.5964 2.48527C17.0418 3.70801 19.8386 4.03469 22.5001 3.40847L26.9053 2.37194C27.2409 2.29297 27.594 2.38175 27.8523 2.61007C28.1106 2.83838 28.2421 3.17785 28.205 3.52061C27.9456 5.91527 27.8125 8.34815 27.8125 10.8125C27.8125 13.2974 27.9479 15.7503 28.2115 18.1643C28.2698 18.6978 27.9211 19.191 27.3987 19.3139L22.9868 20.352C19.8414 21.0921 16.5362 20.706 13.646 19.2609L13.4934 19.1846C10.998 17.9369 8.13863 17.623 5.43199 18.2997L2.3125 19.0796V26.75C2.3125 27.3368 1.8368 27.8125 1.25 27.8125C0.663197 27.8125 0.1875 27.3368 0.1875 26.75V1.25C0.1875 0.663197 0.663197 0.1875 1.25 0.1875Z" fill="#262626"/>
</svg>
