<svg width="32" height="24" viewBox="0 0 32 24" fill="none" xmlns="http://www.w3.org/2000/svg">
<path d="M5.48241 19.5115L5.85167 20.9105C6.31939 22.7294 7.34101 23.6621 9.37191 23.6621H22.6282C24.6715 23.6621 25.6807 22.7527 26.1607 20.9105L26.53 19.5115H5.48241ZM5.07624 17.9142H26.9485L29.2625 8.93679L28.2532 8.38882L22.579 12.3062C22.1605 12.5861 21.8774 12.4811 21.6435 12.1663L16.3016 4.51804L15.7108 4.49472L10.3197 12.2013C10.1104 12.5044 9.86426 12.5977 9.44576 12.3179L3.8823 8.47043L2.70068 8.76191L5.07624 17.9142ZM3.1561 11.2685C4.78083 11.2685 6.08553 10.0211 6.08553 8.47043C6.08553 6.95477 4.78083 5.6956 3.1561 5.6956C1.53137 5.6956 0.214355 6.94311 0.214355 8.47043C0.214355 10.0211 1.54367 11.2685 3.1561 11.2685ZM16.0063 6.41845C17.6186 6.41845 18.9356 5.17094 18.9356 3.63195C18.9356 2.11628 17.6186 0.857117 16.0063 0.857117C14.3692 0.857117 13.0645 2.10463 13.0645 3.63195C13.0645 5.17094 14.3815 6.41845 16.0063 6.41845ZM28.844 11.2685C30.4565 11.2685 31.7858 10.0211 31.7858 8.47043C31.7858 6.94311 30.4688 5.6956 28.844 5.6956C27.2317 5.6956 25.9147 6.95477 25.9147 8.47043C25.9147 10.0211 27.2317 11.2685 28.844 11.2685Z" fill="#262626"/>
</svg>
