<svg width="30" height="28" viewBox="0 0 30 28" fill="none" xmlns="http://www.w3.org/2000/svg">
<path d="M4.375 6.03125C4.375 2.80384 6.99134 0.1875 10.2188 0.1875C13.4462 0.1875 16.0625 2.80384 16.0625 6.03125C16.0625 9.25866 13.4462 11.875 10.2188 11.875C6.99134 11.875 4.375 9.25866 4.375 6.03125Z" fill="#262626"/>
<path d="M18.1875 9.21875C18.1875 6.57814 20.3281 4.4375 22.9688 4.4375C25.6094 4.4375 27.75 6.57814 27.75 9.21875C27.75 11.8594 25.6094 14 22.9688 14C20.3281 14 18.1875 11.8594 18.1875 9.21875Z" fill="#262626"/>
<path d="M0.125 24.0938C0.125 18.5191 4.64413 14 10.2188 14C15.7934 14 20.3125 18.5191 20.3125 24.0938V24.0974C20.3125 24.1538 20.312 24.2104 20.311 24.2665C20.3049 24.6327 20.1105 24.9699 19.7967 25.1589C16.9985 26.8437 13.7201 27.8125 10.2188 27.8125C6.71736 27.8125 3.439 26.8437 0.640753 25.1589C0.326964 24.9699 0.132612 24.6327 0.126454 24.2665C0.125488 24.2091 0.125 24.1515 0.125 24.0938Z" fill="#262626"/>
<path d="M22.4373 24.0982C22.4373 24.1663 22.4367 24.2345 22.4355 24.3022C22.4275 24.782 22.3117 25.2452 22.1055 25.6619C22.3911 25.6789 22.6788 25.6875 22.9685 25.6875C25.2291 25.6875 27.3704 25.1638 29.2749 24.2301C29.6249 24.0586 29.8528 23.7092 29.8688 23.3198C29.8728 23.2241 29.8748 23.1279 29.8748 23.0312C29.8748 19.217 26.7827 16.125 22.9685 16.125C21.9111 16.125 20.9091 16.3627 20.0132 16.7875C21.5357 18.8253 22.4373 21.3543 22.4373 24.0938V24.0982Z" fill="#262626"/>
</svg>
