<svg width="44" height="44" viewBox="0 0 44 44" fill="none" xmlns="http://www.w3.org/2000/svg">
<rect x="1" y="1" width="42" height="42" rx="7" fill="#FFF5F0"/>
<rect x="1" y="1" width="42" height="42" rx="7" stroke="#262626" stroke-width="2"/>
<path d="M11.5 18.6691V27.25C11.5 28.9069 12.8431 30.25 14.5 30.25H29.5C31.1569 30.25 32.5 28.9069 32.5 27.25V18.6691L23.5723 24.1631C22.6081 24.7564 21.3919 24.7564 20.4277 24.1631L11.5 18.6691Z" fill="#262626"/>
<path d="M32.5 16.9078V16.75C32.5 15.0931 31.1569 13.75 29.5 13.75H14.5C12.8431 13.75 11.5 15.0931 11.5 16.75V16.9078L21.2139 22.8856C21.696 23.1823 22.304 23.1823 22.7861 22.8856L32.5 16.9078Z" fill="#262626"/>
</svg>
