<svg width="45" height="44" viewBox="0 0 45 44" fill="none" xmlns="http://www.w3.org/2000/svg">
<rect x="1.5" y="1" width="42" height="42" rx="7" fill="#FFF5F0"/>
<rect x="1.5" y="1" width="42" height="42" rx="7" stroke="#262626" stroke-width="2"/>
<path fill-rule="evenodd" clip-rule="evenodd" d="M22.5 12.25C17.1152 12.25 12.75 16.6152 12.75 22C12.75 27.3848 17.1152 31.75 22.5 31.75C27.8848 31.75 32.25 27.3848 32.25 22C32.25 16.6152 27.8848 12.25 22.5 12.25ZM23.25 16C23.25 15.5858 22.9142 15.25 22.5 15.25C22.0858 15.25 21.75 15.5858 21.75 16V22C21.75 22.4142 22.0858 22.75 22.5 22.75H27C27.4142 22.75 27.75 22.4142 27.75 22C27.75 21.5858 27.4142 21.25 27 21.25H23.25V16Z" fill="#262626"/>
</svg>
