<svg width="45" height="44" viewBox="0 0 45 44" fill="none" xmlns="http://www.w3.org/2000/svg">
<rect x="1.5" y="1" width="42" height="42" rx="7" fill="#FFF5F0"/>
<rect x="1.5" y="1" width="42" height="42" rx="7" stroke="#262626" stroke-width="2"/>
<path fill-rule="evenodd" clip-rule="evenodd" d="M12 14.5C12 12.8431 13.3431 11.5 15 11.5H16.3716C17.232 11.5 17.982 12.0856 18.1906 12.9202L19.2964 17.3434C19.4794 18.0753 19.2059 18.8455 18.6024 19.2982L17.3088 20.2684C17.1745 20.3691 17.1453 20.5167 17.183 20.6197C18.3185 23.7195 20.7805 26.1815 23.8803 27.317C23.9833 27.3547 24.1309 27.3255 24.2316 27.1912L25.2018 25.8976C25.6545 25.2941 26.4247 25.0206 27.1566 25.2036L31.5798 26.3094C32.4144 26.518 33 27.268 33 28.1284V29.5C33 31.1569 31.6569 32.5 30 32.5H27.75C19.0515 32.5 12 25.4485 12 16.75V14.5Z" fill="#262626"/>
</svg>
