<svg width="60" height="60" viewBox="0 0 60 60" fill="none" xmlns="http://www.w3.org/2000/svg">
<rect x="1" y="1" width="58" height="58" rx="9" fill="#FFDECC"/>
<rect x="1" y="1" width="58" height="58" rx="9" stroke="#262626" stroke-width="2"/>
<g clip-path="url(#clip0_121_1856)">
<path d="M42 30C42 23.3726 36.6274 18 30 18C23.3726 18 18 23.3726 18 30C18 35.9895 22.3882 40.954 28.125 41.8542V33.4687H25.0781V30H28.125V27.3562C28.125 24.3488 29.9166 22.6875 32.6576 22.6875C33.9701 22.6875 35.3438 22.9219 35.3438 22.9219V25.875H33.8306C32.34 25.875 31.875 26.8001 31.875 27.75V30H35.2031L34.6711 33.4687H31.875V41.8542C37.6118 40.954 42 35.9895 42 30Z" fill="#262626"/>
</g>
<defs>
<clipPath id="clip0_121_1856">
<rect width="24" height="24" fill="white" transform="translate(18 18)"/>
</clipPath>
</defs>
</svg>
