<svg width="229" height="50" viewBox="0 0 229 50" fill="none" xmlns="http://www.w3.org/2000/svg">
<path d="M14.5833 25.0001L25 14.5834L35.4166 25.0001L25 35.4167L14.5833 25.0001Z" fill="#1A1A1A"/>
<path d="M45.8333 12.5001V25.0001L25 4.16675H37.5L45.8333 12.5001Z" fill="#1A1A1A"/>
<path d="M45.8333 37.5001V25.0001L25 45.8334H37.5L45.8333 37.5001Z" fill="#1A1A1A"/>
<path d="M4.16663 37.5001V25.0001L25 45.8334H12.5L4.16663 37.5001Z" fill="#1A1A1A"/>
<path d="M4.16663 12.5001V25.0001L25 4.16675H12.5L4.16663 12.5001Z" fill="#1A1A1A"/>
<path d="M58.3082 34.375V15.4167H61.4228V34.375H58.3082ZM60.4478 34.375V31.5313H70.3603V34.375H60.4478Z" fill="#262626"/>
<path d="M72.8196 34.375V21.375H75.7988V34.375H72.8196ZM74.3092 18.9917C73.8036 18.9917 73.3793 18.8201 73.0363 18.4771C72.7113 18.134 72.5488 17.7097 72.5488 17.2042C72.5488 16.6986 72.7113 16.2743 73.0363 15.9312C73.3793 15.5882 73.8036 15.4167 74.3092 15.4167C74.8328 15.4167 75.2571 15.5882 75.5821 15.9312C75.9071 16.2743 76.0696 16.6986 76.0696 17.2042C76.0696 17.7097 75.9071 18.134 75.5821 18.4771C75.2571 18.8201 74.8328 18.9917 74.3092 18.9917Z" fill="#262626"/>
<path d="M81.1173 34.375V15.9583H84.0964V34.375H81.1173ZM78.0027 24.0833V21.375H95.0652V24.0833H78.0027ZM88.9714 34.375V15.9583H91.9506V34.375H88.9714Z" fill="#262626"/>
<path d="M97.231 34.375V14.875H100.21V34.375H97.231Z" fill="#262626"/>
<path d="M109.565 34.6458C108.265 34.6458 107.092 34.3569 106.045 33.7792C105.015 33.1833 104.194 32.3708 103.58 31.3417C102.984 30.3125 102.686 29.1569 102.686 27.875C102.686 26.5931 102.984 25.4465 103.58 24.4354C104.176 23.4063 104.979 22.5938 105.99 21.9979C107.02 21.4021 108.157 21.1042 109.403 21.1042C110.613 21.1042 111.678 21.384 112.599 21.9438C113.538 22.5035 114.269 23.2708 114.792 24.2458C115.334 25.2208 115.605 26.3312 115.605 27.5771C115.605 27.7937 115.587 28.0194 115.551 28.2542C115.533 28.4708 115.497 28.7146 115.442 28.9854H104.772V26.5479H113.899L112.788 27.5229C112.752 26.7285 112.599 26.0604 112.328 25.5188C112.057 24.9771 111.669 24.5618 111.163 24.2729C110.676 23.984 110.071 23.8396 109.349 23.8396C108.59 23.8396 107.931 24.0021 107.372 24.3271C106.812 24.6521 106.379 25.1125 106.072 25.7083C105.765 26.2861 105.611 26.9812 105.611 27.7937C105.611 28.6062 105.774 29.3194 106.099 29.9333C106.424 30.5472 106.884 31.0257 107.48 31.3688C108.076 31.6938 108.762 31.8563 109.538 31.8563C110.206 31.8563 110.82 31.7389 111.38 31.5042C111.958 31.2694 112.445 30.9264 112.842 30.475L114.738 32.3979C114.106 33.1382 113.339 33.6979 112.436 34.0771C111.533 34.4563 110.576 34.6458 109.565 34.6458Z" fill="#262626"/>
<path d="M123.821 34.375V15.4167H126.936V34.375H123.821ZM125.961 34.375V31.5313H135.873V34.375H125.961Z" fill="#262626"/>
<path d="M143.896 34.6458C142.596 34.6458 141.422 34.3569 140.375 33.7792C139.346 33.1833 138.524 32.3708 137.91 31.3417C137.314 30.3125 137.016 29.1569 137.016 27.875C137.016 26.5931 137.314 25.4465 137.91 24.4354C138.506 23.4063 139.309 22.5938 140.321 21.9979C141.35 21.4021 142.487 21.1042 143.733 21.1042C144.943 21.1042 146.008 21.384 146.929 21.9438C147.868 22.5035 148.599 23.2708 149.123 24.2458C149.664 25.2208 149.935 26.3312 149.935 27.5771C149.935 27.7937 149.917 28.0194 149.881 28.2542C149.863 28.4708 149.827 28.7146 149.773 28.9854H139.102V26.5479H148.229L147.119 27.5229C147.082 26.7285 146.929 26.0604 146.658 25.5188C146.387 24.9771 145.999 24.5618 145.494 24.2729C145.006 23.984 144.401 23.8396 143.679 23.8396C142.921 23.8396 142.262 24.0021 141.702 24.3271C141.142 24.6521 140.709 25.1125 140.402 25.7083C140.095 26.2861 139.941 26.9812 139.941 27.7937C139.941 28.6062 140.104 29.3194 140.429 29.9333C140.754 30.5472 141.214 31.0257 141.81 31.3688C142.406 31.6938 143.092 31.8563 143.869 31.8563C144.537 31.8563 145.15 31.7389 145.71 31.5042C146.288 31.2694 146.775 30.9264 147.173 30.475L149.069 32.3979C148.437 33.1382 147.669 33.6979 146.766 34.0771C145.864 34.4563 144.907 34.6458 143.896 34.6458Z" fill="#262626"/>
<path d="M157.767 34.6458C156.594 34.6458 155.528 34.3479 154.571 33.7521C153.632 33.1563 152.883 32.3528 152.323 31.3417C151.782 30.3125 151.511 29.166 151.511 27.9021C151.511 26.6201 151.782 25.4736 152.323 24.4625C152.883 23.4333 153.632 22.6208 154.571 22.025C155.528 21.4111 156.594 21.1042 157.767 21.1042C158.76 21.1042 159.636 21.3208 160.394 21.7542C161.171 22.1694 161.784 22.7472 162.236 23.4875C162.687 24.2278 162.913 25.0674 162.913 26.0063V29.7438C162.913 30.6826 162.687 31.5222 162.236 32.2625C161.803 33.0028 161.198 33.5896 160.421 34.0229C159.645 34.4382 158.76 34.6458 157.767 34.6458ZM158.255 31.8292C159.356 31.8292 160.241 31.459 160.909 30.7188C161.595 29.9785 161.938 29.0306 161.938 27.875C161.938 27.0986 161.784 26.4125 161.478 25.8167C161.171 25.2208 160.737 24.7604 160.178 24.4354C159.636 24.0924 158.995 23.9208 158.255 23.9208C157.532 23.9208 156.891 24.0924 156.332 24.4354C155.79 24.7604 155.357 25.2208 155.032 25.8167C154.725 26.4125 154.571 27.0986 154.571 27.875C154.571 28.6514 154.725 29.3375 155.032 29.9333C155.357 30.5292 155.79 30.9986 156.332 31.3417C156.891 31.6667 157.532 31.8292 158.255 31.8292ZM161.748 34.375V30.8813L162.263 27.7125L161.748 24.5708V21.375H164.728V34.375H161.748Z" fill="#262626"/>
<path d="M168.034 34.375V21.375H171.013V34.375H168.034ZM171.013 27.1437L169.984 26.6292C169.984 24.9861 170.345 23.659 171.067 22.6479C171.807 21.6187 172.918 21.1042 174.398 21.1042C175.048 21.1042 175.635 21.2215 176.159 21.4563C176.682 21.691 177.17 22.0701 177.621 22.5937L175.671 24.5979C175.437 24.3451 175.175 24.1646 174.886 24.0563C174.597 23.9479 174.263 23.8938 173.884 23.8938C173.053 23.8938 172.367 24.1556 171.825 24.6792C171.284 25.2028 171.013 26.0243 171.013 27.1437Z" fill="#262626"/>
<path d="M187.973 34.375V26.8729C187.973 26.0063 187.693 25.2931 187.134 24.7333C186.592 24.1736 185.888 23.8938 185.021 23.8938C184.443 23.8938 183.929 24.0201 183.477 24.2729C183.026 24.5257 182.674 24.8778 182.421 25.3292C182.168 25.7806 182.042 26.2951 182.042 26.8729L180.877 26.2229C180.877 25.2299 181.094 24.3542 181.527 23.5958C181.961 22.8194 182.557 22.2146 183.315 21.7813C184.091 21.3299 184.958 21.1042 185.915 21.1042C186.89 21.1042 187.757 21.3569 188.515 21.8625C189.273 22.35 189.869 22.991 190.302 23.7854C190.736 24.5618 190.952 25.3743 190.952 26.2229V34.375H187.973ZM179.063 34.375V21.375H182.042V34.375H179.063Z" fill="#262626"/>
<path d="M200.019 34.6458C198.719 34.6458 197.546 34.3569 196.499 33.7792C195.469 33.1833 194.648 32.3708 194.034 31.3417C193.438 30.3125 193.14 29.1569 193.14 27.875C193.14 26.5931 193.438 25.4465 194.034 24.4354C194.63 23.4063 195.433 22.5938 196.444 21.9979C197.474 21.4021 198.611 21.1042 199.857 21.1042C201.067 21.1042 202.132 21.384 203.053 21.9438C203.992 22.5035 204.723 23.2708 205.247 24.2458C205.788 25.2208 206.059 26.3312 206.059 27.5771C206.059 27.7937 206.041 28.0194 206.005 28.2542C205.987 28.4708 205.951 28.7146 205.897 28.9854H195.226V26.5479H204.353L203.242 27.5229C203.206 26.7285 203.053 26.0604 202.782 25.5188C202.511 24.9771 202.123 24.5618 201.617 24.2729C201.13 23.984 200.525 23.8396 199.803 23.8396C199.044 23.8396 198.385 24.0021 197.826 24.3271C197.266 24.6521 196.833 25.1125 196.526 25.7083C196.219 26.2861 196.065 26.9812 196.065 27.7937C196.065 28.6062 196.228 29.3194 196.553 29.9333C196.878 30.5472 197.338 31.0257 197.934 31.3688C198.53 31.6938 199.216 31.8563 199.992 31.8563C200.66 31.8563 201.274 31.7389 201.834 31.5042C202.412 31.2694 202.899 30.9264 203.297 30.475L205.192 32.3979C204.56 33.1382 203.793 33.6979 202.89 34.0771C201.988 34.4563 201.031 34.6458 200.019 34.6458Z" fill="#262626"/>
<path d="M208.447 34.375V21.375H211.426V34.375H208.447ZM211.426 27.1437L210.397 26.6292C210.397 24.9861 210.758 23.659 211.481 22.6479C212.221 21.6187 213.331 21.1042 214.812 21.1042C215.462 21.1042 216.049 21.2215 216.572 21.4563C217.096 21.691 217.583 22.0701 218.035 22.5937L216.085 24.5979C215.85 24.3451 215.588 24.1646 215.299 24.0563C215.01 23.9479 214.676 23.8938 214.297 23.8938C213.467 23.8938 212.781 24.1556 212.239 24.6792C211.697 25.2028 211.426 26.0243 211.426 27.1437Z" fill="#262626"/>
<path d="M223.437 34.6458C222.715 34.6458 222.02 34.5556 221.352 34.375C220.684 34.1764 220.07 33.9056 219.51 33.5625C218.951 33.2014 218.463 32.7681 218.048 32.2625L219.944 30.3667C220.395 30.8903 220.91 31.2875 221.487 31.5583C222.083 31.8111 222.751 31.9375 223.492 31.9375C224.16 31.9375 224.665 31.8382 225.008 31.6396C225.351 31.441 225.523 31.1521 225.523 30.7729C225.523 30.3757 225.36 30.0688 225.035 29.8521C224.71 29.6354 224.286 29.4549 223.762 29.3104C223.257 29.1479 222.715 28.9854 222.137 28.8229C221.578 28.6604 221.036 28.4438 220.512 28.1729C220.007 27.884 219.592 27.4958 219.267 27.0083C218.942 26.5208 218.779 25.8889 218.779 25.1125C218.779 24.2819 218.969 23.5688 219.348 22.9729C219.745 22.3771 220.296 21.9167 221 21.5917C221.722 21.2667 222.58 21.1042 223.573 21.1042C224.62 21.1042 225.541 21.2938 226.335 21.6729C227.148 22.034 227.825 22.5847 228.367 23.325L226.471 25.2208C226.092 24.7514 225.658 24.3993 225.171 24.1646C224.683 23.9299 224.124 23.8125 223.492 23.8125C222.896 23.8125 222.435 23.9028 222.11 24.0833C221.785 24.2639 221.623 24.5257 221.623 24.8688C221.623 25.2299 221.785 25.5097 222.11 25.7083C222.435 25.9069 222.851 26.0785 223.356 26.2229C223.88 26.3674 224.421 26.5299 224.981 26.7104C225.559 26.8729 226.101 27.1076 226.606 27.4146C227.13 27.7035 227.554 28.1007 227.879 28.6063C228.204 29.0938 228.367 29.7347 228.367 30.5292C228.367 31.7931 227.924 32.7951 227.04 33.5354C226.155 34.2757 224.954 34.6458 223.437 34.6458Z" fill="#262626"/>
</svg>
