<svg width="88" height="88" viewBox="0 0 88 88" fill="none" xmlns="http://www.w3.org/2000/svg">
<g clip-path="url(#clip0_154_29637)">
<path d="M58.21 14.895L72.76 0.344971H87.31V14.895L72.76 29.445H58.21V14.895Z" fill="#FFDECC"/>
<path d="M87.3098 0.344971H72.7598V14.895H87.3098V0.344971Z" fill="#FF8D4D"/>
<path d="M58.21 44.0049L72.76 29.4449H87.31V44.0049L72.76 58.5549H58.21V44.0049Z" fill="#FFDECC"/>
<path d="M87.3098 29.4449H72.7598V43.9949H87.3098V29.4449Z" fill="#FF8D4D"/>
<path d="M29.0996 14.895L43.6596 0.344971H58.2096V14.895L43.6596 29.445H29.0996V14.895Z" fill="#FFDECC"/>
<path d="M58.2092 0.344971H43.6592V14.895H58.2092V0.344971Z" fill="#FF8D4D"/>
<path d="M29.0996 44.0049L43.6596 29.4449H58.2096V44.0049L43.6596 58.5549H29.0996V44.0049Z" fill="#FFDECC"/>
<path d="M58.2092 29.4449H43.6592V43.9949H58.2092V29.4449Z" fill="#FF8D4D"/>
<path d="M0 14.895L14.55 0.344971H29.1V14.895L14.55 29.445H0V14.895Z" fill="#FFDECC"/>
<path d="M29.0998 0.344971H14.5498V14.895H29.0998V0.344971Z" fill="#FF8D4D"/>
<path d="M0 44.0049L14.55 29.4449H29.1V44.0049L14.55 58.5549H0V44.0049Z" fill="#FFDECC"/>
<path d="M29.0998 29.4449H14.5498V43.9949H29.0998V29.4449Z" fill="#FF8D4D"/>
<path d="M58.21 73.1049L72.76 58.5549H87.31V73.1049L72.76 87.6549H58.21V73.1049Z" fill="#FFDECC"/>
<path d="M87.3098 58.5549H72.7598V73.1049H87.3098V58.5549Z" fill="#FF8D4D"/>
<path d="M29.0996 73.1049L43.6596 58.5549H58.2096V73.1049L43.6596 87.6549H29.0996V73.1049Z" fill="#FFDECC"/>
<path d="M58.2092 58.5549H43.6592V73.1049H58.2092V58.5549Z" fill="#FF8D4D"/>
<path d="M0 73.1049L14.55 58.5549H29.1V73.1049L14.55 87.6549H0V73.1049Z" fill="#FFDECC"/>
<path d="M29.0998 58.5549H14.5498V73.1049H29.0998V58.5549Z" fill="#FF8D4D"/>
</g>
<defs>
<clipPath id="clip0_154_29637">
<rect width="87.31" height="87.31" fill="white" transform="translate(0 0.344971)"/>
</clipPath>
</defs>
</svg>
