<svg width="60" height="60" viewBox="0 0 60 60" fill="none" xmlns="http://www.w3.org/2000/svg">
<rect x="1" y="1" width="58" height="58" rx="9" fill="#FFDECC"/>
<rect x="1" y="1" width="58" height="58" rx="9" stroke="#262626" stroke-width="2"/>
<g clip-path="url(#clip0_121_1862)">
<path d="M40.2234 18H19.7719C18.7922 18 18 18.7734 18 19.7297V40.2656C18 41.2219 18.7922 42 19.7719 42H40.2234C41.2031 42 42 41.2219 42 40.2703V19.7297C42 18.7734 41.2031 18 40.2234 18ZM25.1203 38.4516H21.5578V26.9953H25.1203V38.4516ZM23.3391 25.4344C22.1953 25.4344 21.2719 24.5109 21.2719 23.3719C21.2719 22.2328 22.1953 21.3094 23.3391 21.3094C24.4781 21.3094 25.4016 22.2328 25.4016 23.3719C25.4016 24.5062 24.4781 25.4344 23.3391 25.4344ZM38.4516 38.4516H34.8937V32.8828C34.8937 31.5562 34.8703 29.8453 33.0422 29.8453C31.1906 29.8453 30.9094 31.2937 30.9094 32.7891V38.4516H27.3563V26.9953H30.7687V28.5609H30.8156C31.2891 27.6609 32.4516 26.7094 34.1813 26.7094C37.7859 26.7094 38.4516 29.0813 38.4516 32.1656V38.4516Z" fill="#262626"/>
</g>
<defs>
<clipPath id="clip0_121_1862">
<rect width="24" height="24" fill="white" transform="translate(18 18)"/>
</clipPath>
</defs>
</svg>
