<svg width="60" height="60" viewBox="0 0 60 60" fill="none" xmlns="http://www.w3.org/2000/svg">
<rect x="1" y="1" width="58" height="58" rx="9" fill="#FFDECC"/>
<rect x="1" y="1" width="58" height="58" rx="9" stroke="#262626" stroke-width="2"/>
<path d="M39.2011 21.4939H20.7989C19.2529 21.4939 18 22.7468 18 24.2924V35.7077C18 37.2534 19.2529 38.5062 20.7989 38.5062H39.2011C40.7467 38.5062 42 37.2534 42 35.7077V24.2924C42 22.7468 40.7467 21.4939 39.2011 21.4939ZM40.6636 36.4617L40.1308 37.0927L32.6699 31.0035L31.5144 32.1029C30.6581 32.8893 29.342 32.8893 28.4856 32.1029L27.3301 31.0035L19.8692 37.0927L19.3364 36.4617L26.3414 30.0625L19.2905 23.4361L19.7074 22.8837L30 30.6826L40.2926 22.8837L40.7091 23.4361L33.6586 30.0625L40.6636 36.4617Z" fill="#262626"/>
</svg>
