<svg width="81" height="80" viewBox="0 0 81 80" fill="none" xmlns="http://www.w3.org/2000/svg">
<g clip-path="url(#clip0_123_3240)">
<path d="M49.9411 48.5743C53.0837 54.3146 56.1511 59.9101 59.2132 65.5055C61.4835 69.6571 63.7512 73.8114 66.0082 77.9684C66.8294 79.4793 66.5261 79.9946 64.8167 79.9946C48.72 80 32.6234 80 16.5268 79.9946C14.9542 79.9946 14.6107 79.4606 15.3353 78.1321C20.9361 67.8645 26.5476 57.6021 32.1565 47.3425C32.2423 47.1868 32.3631 47.0526 32.5241 46.8299C33.9196 47.6404 34.722 49.8839 36.606 49.2935C38.1169 48.8185 39.3728 47.5357 41.0528 46.4032C41.7828 47.1922 42.7194 48.2576 43.715 49.264C45.8324 51.4055 46.9783 51.4055 49.1065 49.3338C49.3265 49.1191 49.56 48.9205 49.9411 48.577V48.5743Z" fill="#262626"/>
<path d="M45.0811 2.7749H67.9942C67.6641 3.26333 67.4843 3.58805 67.2481 3.86715C65.7748 5.60617 64.2773 7.32371 62.8093 9.06541C61.5078 10.6112 61.5265 12.0953 62.8415 13.6464C64.5135 15.6135 66.1961 17.5699 68.0747 19.7598H45.0811V2.7749Z" fill="#FF9E66"/>
<path d="M11.8067 79.898H0.419922C5.10291 71.5249 9.65709 63.3881 14.2166 55.2351C16.1882 56.7165 18.3557 56.6029 20.7192 54.8943C20.7594 54.9131 20.8077 54.9238 20.8399 54.9506C22.6219 56.4589 22.9555 58.2292 21.8409 60.2616C18.8862 65.6611 15.9073 71.0473 13.0063 76.4736C12.4615 77.4934 12.2227 78.6769 11.8067 79.8953V79.898Z" fill="#262626"/>
<path d="M60.4721 54.6475C62.9214 56.6405 65.1676 56.8329 67.2108 55.2244C71.7704 63.3801 76.3192 71.5143 80.9995 79.8846H69.6529C69.1887 78.6126 68.8961 77.3647 68.3084 76.2697C65.1283 70.3335 61.8945 64.4267 58.6285 58.5388C58.1615 57.6961 58.1212 57.1647 58.8995 56.5099C59.5033 56.0027 59.9381 55.2915 60.4721 54.6448V54.6475Z" fill="#262626"/>
<path d="M48.5567 46.0302C47.8401 46.6501 47.1665 47.2325 46.2782 48.0054C45.2075 46.8702 44.0884 45.6223 42.9022 44.4388C41.4101 42.952 39.9716 42.995 38.4902 44.4871C37.8381 45.1419 37.1753 45.7913 36.2735 46.6877C35.6375 45.947 34.9854 45.2734 34.454 44.5166C34.2608 44.2402 34.1883 43.6739 34.3413 43.3895C36.0776 40.1261 37.8489 36.8816 39.6523 33.6531C40.3017 32.4911 41.1605 32.5287 41.8287 33.7417C44.0454 37.7565 46.2353 41.7846 48.5567 46.0329V46.0302Z" fill="#FF9E66"/>
<path d="M42.0833 30.0168H39.2923V28.6776C39.2923 19.8698 39.2923 11.0621 39.295 2.25695C39.295 1.81146 39.1957 1.27205 39.405 0.944641C39.6815 0.517938 40.2316 -0.0187942 40.6395 -8.56677e-06C41.128 0.0241444 41.6379 0.536724 42.0377 0.939273C42.2068 1.10834 42.137 1.53773 42.137 1.84904C42.1424 10.9681 42.1397 20.0899 42.137 29.209C42.137 29.4693 42.1021 29.7269 42.0807 30.0168H42.0833Z" fill="#FF9E66"/>
<path d="M20.6331 43.8457C21.1081 44.573 21.3899 44.9541 21.6207 45.3647C22.7854 47.4257 23.9313 49.4948 25.0907 51.5559C25.6614 52.5721 25.5845 53.5623 24.8599 54.5267C23.62 53.6223 22.4956 52.4173 21.1135 51.8913C19.404 51.2446 18.5264 53.0802 17.1739 54.0758C16.7633 53.5391 16.3607 53.0158 15.8428 52.3368C17.3215 49.7149 18.8995 46.9185 20.6331 43.8403V43.8457Z" fill="#262626"/>
<path d="M65.6736 52.5086C65.1691 53.0614 64.7236 53.5471 64.2969 54.0141C61.8762 52.2715 59.3258 52.479 56.6458 54.6367C55.7333 53.7082 55.5347 52.8011 56.2942 51.5881C57.5475 49.5834 58.629 47.474 59.791 45.413C60.0245 44.9997 60.2955 44.6079 60.7813 43.8403C61.7125 45.4666 62.4988 46.8219 63.269 48.1852C64.058 49.5834 64.8336 50.9923 65.6736 52.5086Z" fill="#262626"/>
</g>
<defs>
<clipPath id="clip0_123_3240">
<rect width="80.5797" height="80" fill="white" transform="translate(0.419922)"/>
</clipPath>
</defs>
</svg>
