<svg width="107" height="80" viewBox="0 0 107 80" fill="none" xmlns="http://www.w3.org/2000/svg">
<g clip-path="url(#clip0_123_3225)">
<path d="M96.8358 27.9555C93.7579 26.9198 90.7672 25.5789 87.6384 24.9248C79.7165 23.2714 72.1472 24.5978 65.4717 29.1837C62.9462 30.9207 61.0856 33.6534 59.0034 36.0045C57.2083 38.0322 55.5294 40.1653 53.6507 42.4329C51.692 40.1145 49.915 37.8433 47.9564 35.7356C45.5798 33.181 43.4322 30.1322 40.5214 28.417C31.5785 23.1369 22.1667 23.0788 12.7222 27.3632C12.079 27.6539 11.4504 27.9773 10.3711 28.5042C11.5448 26.055 12.5187 24.0163 13.4999 21.9777C14.2848 20.3425 15.2514 18.7727 15.8256 17.0684C17.4971 12.1299 21.5744 10.0804 26.0513 9.17919C31.8256 8.01998 37.5526 8.68498 42.4329 12.4788C43.2432 13.1074 43.8646 14.2376 44.1372 15.2514C44.7004 17.3336 44.9693 19.4994 45.4454 22.0831C46.739 21.7452 47.9673 21.6071 49.0284 21.1092C52.2625 19.5975 55.4058 19.4922 58.5855 21.2292C59.1887 21.5598 59.9155 21.7052 60.6023 21.8287C61.7833 22.0431 62.332 21.5744 62.4192 20.288C62.5319 18.6055 62.7499 16.9012 63.1896 15.2805C63.4549 14.2993 64.0363 13.2419 64.7922 12.5769C69.4399 8.47785 75.007 8.387 80.7231 9.20099C81.8496 9.36089 82.958 9.72064 84.0445 10.084C87.1878 11.1379 89.6698 12.8385 91.0506 16.109C92.526 19.6084 94.4156 22.9298 96.1163 26.3348C96.3997 26.9017 96.6323 27.4903 96.8394 27.9591L96.8358 27.9555Z" fill="#262626"/>
<path d="M51.1724 54.6936C51.1106 68.8221 39.8347 80.0327 25.7207 79.9963C11.6503 79.96 0.276216 68.5968 0.287117 54.5918C0.298019 40.5614 11.9664 28.9657 25.9097 29.1219C40.0164 29.2782 51.2306 40.6341 51.1724 54.6936ZM25.757 71.2605C35.1543 71.2605 42.7454 63.6838 42.7309 54.3157C42.7164 44.8966 35.1688 37.3854 25.728 37.3926C16.4652 37.3999 8.91396 44.962 8.86309 54.2793C8.81221 63.7056 16.3271 71.2568 25.7534 71.2605H25.757Z" fill="#FF9E66"/>
<path d="M56.1182 54.581C56.1254 40.5215 67.4668 29.1438 81.4936 29.122C95.4514 29.1002 106.924 40.5251 107 54.5265C107.08 68.5751 95.5822 80.04 81.4573 80.0037C67.3323 79.9637 56.1109 68.7059 56.1182 54.5846V54.581ZM98.4239 54.3557C98.4239 44.864 90.9635 37.3854 81.5045 37.3963C72.1727 37.4036 64.5306 45.082 64.5561 54.4247C64.5815 63.702 72.1509 71.2496 81.4536 71.2642C90.9054 71.2823 98.4202 63.7893 98.4202 54.3557H98.4239Z" fill="#FF9E66"/>
<path d="M83.489 4.69864C77.2279 3.12153 71.3846 3.51036 65.7012 6.174C66.239 3.55033 69.1824 0.99571 72.264 0.370682C76.7337 -0.53779 80.9926 1.01751 83.489 4.70227V4.69864Z" fill="#262626"/>
<path d="M24.0273 4.14258C26.1604 1.4099 29.0457 -0.185377 32.6615 0.0181205C36.6769 0.243421 39.7366 2.19845 41.6844 5.76329C38.7627 5.131 35.9101 4.22979 32.9994 3.96815C30.0414 3.69925 27.0289 4.059 24.0273 4.14258Z" fill="#262626"/>
</g>
<defs>
<clipPath id="clip0_123_3225">
<rect width="106.713" height="80" fill="white" transform="translate(0.287109)"/>
</clipPath>
</defs>
</svg>
