<svg width="22" height="18" viewBox="0 0 22 18" fill="none" xmlns="http://www.w3.org/2000/svg">
<path fill-rule="evenodd" clip-rule="evenodd" d="M0.5 9C0.5 8.37868 1.00368 7.875 1.625 7.875L17.5819 7.875L11.3453 1.93593C10.8974 1.50529 10.8834 0.793118 11.3141 0.345249C11.7447 -0.102619 12.4569 -0.116583 12.9047 0.31406L21.1547 8.18906C21.3753 8.40116 21.5 8.69398 21.5 9C21.5 9.30602 21.3753 9.59883 21.1547 9.81093L12.9047 17.6859C12.4569 18.1166 11.7447 18.1026 11.3141 17.6547C10.8834 17.2069 10.8974 16.4947 11.3453 16.0641L17.5819 10.125L1.625 10.125C1.00368 10.125 0.5 9.62132 0.5 9Z" fill="#262626"/>
</svg>
