<svg width="44" height="44" viewBox="0 0 44 44" fill="none" xmlns="http://www.w3.org/2000/svg">
<rect x="1" y="1" width="42" height="42" rx="7" fill="#FFF5F0"/>
<rect x="1" y="1" width="42" height="42" rx="7" stroke="#262626" stroke-width="2"/>
<path fill-rule="evenodd" clip-rule="evenodd" d="M11.5 14.5C11.5 12.8431 12.8431 11.5 14.5 11.5H15.8716C16.732 11.5 17.482 12.0856 17.6906 12.9202L18.7964 17.3434C18.9794 18.0753 18.7059 18.8455 18.1024 19.2982L16.8088 20.2684C16.6745 20.3691 16.6453 20.5167 16.683 20.6197C17.8185 23.7195 20.2805 26.1815 23.3803 27.317C23.4833 27.3547 23.6309 27.3255 23.7316 27.1912L24.7018 25.8976C25.1545 25.2941 25.9247 25.0206 26.6566 25.2036L31.0798 26.3094C31.9144 26.518 32.5 27.268 32.5 28.1284V29.5C32.5 31.1569 31.1569 32.5 29.5 32.5H27.25C18.5515 32.5 11.5 25.4485 11.5 16.75V14.5Z" fill="#262626"/>
</svg>
