<svg width="28" height="28" viewBox="0 0 28 28" fill="none" xmlns="http://www.w3.org/2000/svg">
<path d="M14 0.1875C14.5868 0.1875 15.0625 0.663197 15.0625 1.25V4.4375C15.0625 5.0243 14.5868 5.5 14 5.5C13.4132 5.5 12.9375 5.0243 12.9375 4.4375V1.25C12.9375 0.663197 13.4132 0.1875 14 0.1875Z" fill="#262626"/>
<path d="M7.625 14C7.625 10.4792 10.4792 7.625 14 7.625C17.5208 7.625 20.375 10.4792 20.375 14C20.375 17.5208 17.5208 20.375 14 20.375C10.4792 20.375 7.625 17.5208 7.625 14Z" fill="#262626"/>
<path d="M23.767 5.73565C24.1819 5.32071 24.1819 4.64798 23.767 4.23304C23.3521 3.81811 22.6793 3.81811 22.2644 4.23304L20.0105 6.48695C19.5955 6.90188 19.5955 7.57462 20.0105 7.98955C20.4254 8.40448 21.0982 8.40448 21.5131 7.98955L23.767 5.73565Z" fill="#262626"/>
<path d="M27.8125 14C27.8125 14.5868 27.3368 15.0625 26.75 15.0625H23.5625C22.9757 15.0625 22.5 14.5868 22.5 14C22.5 13.4132 22.9757 12.9375 23.5625 12.9375H26.75C27.3368 12.9375 27.8125 13.4132 27.8125 14Z" fill="#262626"/>
<path d="M22.2642 23.7669C22.6792 24.1818 23.3519 24.1818 23.7668 23.7669C24.1818 23.3519 24.1818 22.6792 23.7668 22.2643L21.5129 20.0104C21.098 19.5954 20.4253 19.5954 20.0103 20.0104C19.5954 20.4253 19.5954 21.098 20.0103 21.513L22.2642 23.7669Z" fill="#262626"/>
<path d="M14 22.5C14.5868 22.5 15.0625 22.9757 15.0625 23.5625V26.75C15.0625 27.3368 14.5868 27.8125 14 27.8125C13.4132 27.8125 12.9375 27.3368 12.9375 26.75V23.5625C12.9375 22.9757 13.4132 22.5 14 22.5Z" fill="#262626"/>
<path d="M7.9898 21.513C8.40473 21.098 8.40473 20.4253 7.9898 20.0104C7.57486 19.5954 6.90213 19.5954 6.48719 20.0104L4.23329 22.2643C3.81836 22.6792 3.81836 23.3519 4.23329 23.7669C4.64822 24.1818 5.32096 24.1818 5.73589 23.7669L7.9898 21.513Z" fill="#262626"/>
<path d="M5.5 14C5.5 14.5868 5.0243 15.0625 4.4375 15.0625H1.25C0.663197 15.0625 0.1875 14.5868 0.1875 14C0.1875 13.4132 0.663197 12.9375 1.25 12.9375H4.4375C5.0243 12.9375 5.5 13.4132 5.5 14Z" fill="#262626"/>
<path d="M6.48703 7.98954C6.90197 8.40447 7.5747 8.40447 7.98964 7.98954C8.40457 7.5746 8.40457 6.90187 7.98964 6.48693L5.73573 4.23303C5.3208 3.8181 4.64806 3.8181 4.23313 4.23303C3.8182 4.64796 3.8182 5.3207 4.23313 5.73563L6.48703 7.98954Z" fill="#262626"/>
</svg>
