<svg width="34" height="34" viewBox="0 0 34 34" fill="none" xmlns="http://www.w3.org/2000/svg">
<path fill-rule="evenodd" clip-rule="evenodd" d="M29.1822 2.125C28.6504 2.125 28.1305 2.28241 27.688 2.57739L20.4928 7.37422C18.5584 8.66379 16.8087 10.197 15.2838 11.9303C18.2801 13.303 20.6978 15.7207 22.0705 18.717C23.8038 17.1921 25.337 15.4424 26.6266 13.508L31.4234 6.31279C31.7184 5.87032 31.8758 5.35042 31.8758 4.81863C31.8758 3.33098 30.6698 2.125 29.1822 2.125ZM17.4251 21.9936C18.4825 21.4062 19.4954 20.7489 20.4577 20.0276C19.2654 17.0851 16.9157 14.7353 13.9732 13.5431C13.2519 14.5054 12.5946 15.5183 12.0072 16.5757L11.6126 17.2859C14.0726 17.9895 16.0113 19.9282 16.7149 22.3882L17.4251 21.9936ZM9.56329 19.125C6.62925 19.125 4.25079 21.5035 4.25079 24.4375C4.25079 25.6111 3.2994 26.5625 2.12579 26.5625C2.07767 26.5625 2.02978 26.5609 1.9822 26.5577C1.59099 26.5319 1.21732 26.7236 1.01011 27.0564C0.802907 27.3893 0.79584 27.8092 0.991729 28.1488C2.27494 30.3736 4.68063 31.875 7.43829 31.875C11.5459 31.875 14.8758 28.5451 14.8758 24.4375C14.8758 21.5035 12.4973 19.125 9.56329 19.125Z" fill="#262626"/>
</svg>
