<svg width="29" height="29" viewBox="0 0 29 29" fill="none" xmlns="http://www.w3.org/2000/svg">
<path d="M13.9375 5.56066C13.9375 5.05752 13.6739 4.60275 13.3691 4.20245C13.0562 3.79148 12.875 3.304 12.875 2.78125C12.875 1.31424 14.3021 0.125 16.0625 0.125C17.8229 0.125 19.25 1.31424 19.25 2.78125C19.25 3.304 19.0688 3.79148 18.7559 4.20245C18.4511 4.60275 18.1875 5.05753 18.1875 5.56066C18.1875 6.03149 18.5809 6.40735 19.0509 6.3793C21.7576 6.21779 24.4206 5.89548 27.0306 5.42189C27.3178 5.36977 27.6138 5.43813 27.8491 5.61091C28.0844 5.78369 28.2383 6.04568 28.2745 6.33534C28.5919 8.87042 28.7718 11.4479 28.8067 14.06C28.8136 14.579 28.3922 14.9999 27.8732 15C27.37 15 26.9152 14.7364 26.5149 14.4316C26.104 14.1187 25.6165 13.9375 25.0937 13.9375C23.6267 13.9375 22.4375 15.3646 22.4375 17.125C22.4375 18.8854 23.6267 20.3125 25.0937 20.3125C25.6165 20.3125 26.104 20.1313 26.5149 19.8184C26.9152 19.5136 27.37 19.25 27.8732 19.25C28.3129 19.25 28.6621 19.6207 28.6304 20.0593C28.4622 22.3806 28.1794 24.6703 27.7873 26.9228C27.7104 27.3646 27.3645 27.7105 26.9227 27.7874C24.3456 28.2359 21.7198 28.5415 19.0538 28.6958C18.582 28.7231 18.1875 28.3457 18.1875 27.8732C18.1875 27.37 18.4511 26.9152 18.7559 26.5149C19.0688 26.104 19.25 25.6165 19.25 25.0938C19.25 23.6267 17.8229 22.4375 16.0625 22.4375C14.3021 22.4375 12.875 23.6267 12.875 25.0938C12.875 25.6165 13.0562 26.104 13.3691 26.5149C13.6739 26.9152 13.9375 27.37 13.9375 27.8732C13.9375 28.3854 13.5181 28.7991 13.0061 28.7846C10.7543 28.7207 8.52921 28.549 6.33585 28.2744C6.04619 28.2381 5.7842 28.0843 5.61143 27.849C5.43864 27.6137 5.37029 27.3176 5.42241 27.0304C5.83732 24.7439 6.13613 22.4168 6.31243 20.0552C6.34499 19.6191 5.99797 19.25 5.56066 19.25C5.05752 19.25 4.60275 19.5136 4.20245 19.8184C3.79148 20.1313 3.304 20.3125 2.78125 20.3125C1.31424 20.3125 0.125 18.8854 0.125 17.125C0.125 15.3646 1.31424 13.9375 2.78125 13.9375C3.304 13.9375 3.79148 14.1187 4.20245 14.4316C4.60275 14.7364 5.05753 15 5.56066 15C6.07968 15 6.5011 14.5792 6.49396 14.0603C6.46223 11.7536 6.31388 9.47537 6.05458 7.2314C6.01735 6.90914 6.12937 6.58753 6.35876 6.35814C6.58815 6.12875 6.90976 6.01673 7.23202 6.05396C9.13361 6.27369 11.0597 6.41376 13.0068 6.4707C13.5184 6.48565 13.9375 6.07241 13.9375 5.56066Z" fill="#262626"/>
</svg>
