<svg width="28" height="26" viewBox="0 0 28 26" fill="none" xmlns="http://www.w3.org/2000/svg">
<path d="M12.9375 2.42156C10.7906 1.04729 8.23765 0.25 5.5 0.25C3.88752 0.25 2.33738 0.526753 0.895926 1.03623C0.47136 1.18629 0.1875 1.58769 0.1875 2.038V22.2255C0.1875 22.5704 0.354919 22.8939 0.636525 23.093C0.918131 23.2921 1.27888 23.3422 1.60407 23.2273C2.82125 22.7971 4.13208 22.5625 5.5 22.5625C8.32627 22.5625 10.9163 23.5644 12.9375 25.2339V2.42156Z" fill="#262626"/>
<path d="M15.0625 25.2339C17.0837 23.5644 19.6737 22.5625 22.5 22.5625C23.8679 22.5625 25.1788 22.7971 26.3959 23.2273C26.7211 23.3422 27.0819 23.2921 27.3635 23.093C27.6451 22.8939 27.8125 22.5704 27.8125 22.2255V2.038C27.8125 1.58769 27.5286 1.18629 27.1041 1.03623C25.6626 0.526753 24.1125 0.25 22.5 0.25C19.7623 0.25 17.2094 1.04729 15.0625 2.42156V25.2339Z" fill="#262626"/>
</svg>
