<svg width="31" height="27" viewBox="0 0 31 27" fill="none" xmlns="http://www.w3.org/2000/svg">
<path fill-rule="evenodd" clip-rule="evenodd" d="M10.3555 5.5625C10.3555 2.62849 12.734 0.25 15.668 0.25C18.602 0.25 20.9805 2.62849 20.9805 5.5625C20.9805 8.49651 18.602 10.875 15.668 10.875C12.734 10.875 10.3555 8.49651 10.3555 5.5625Z" fill="#262626"/>
<path fill-rule="evenodd" clip-rule="evenodd" d="M20.9805 9.8125C20.9805 7.46529 22.8833 5.5625 25.2305 5.5625C27.5777 5.5625 29.4805 7.46529 29.4805 9.8125C29.4805 12.1597 27.5777 14.0625 25.2305 14.0625C22.8833 14.0625 20.9805 12.1597 20.9805 9.8125Z" fill="#262626"/>
<path fill-rule="evenodd" clip-rule="evenodd" d="M1.85547 9.8125C1.85547 7.46529 3.75826 5.5625 6.10547 5.5625C8.45268 5.5625 10.3555 7.46529 10.3555 9.8125C10.3555 12.1597 8.45268 14.0625 6.10547 14.0625C3.75826 14.0625 1.85547 12.1597 1.85547 9.8125Z" fill="#262626"/>
<path fill-rule="evenodd" clip-rule="evenodd" d="M7.60694 17.4165C9.30406 14.7629 12.2798 13 15.668 13C19.0566 13 22.0326 14.7633 23.7296 17.4175C24.9029 19.2524 25.4104 21.4649 25.1723 23.6221C25.1351 23.9592 24.9392 24.2583 24.645 24.4271C21.9996 25.945 18.9335 26.8125 15.668 26.8125C12.4024 26.8125 9.3363 25.945 6.6909 24.4271C6.39672 24.2583 6.20081 23.9592 6.1636 23.6221C5.92546 21.4645 6.4333 19.2516 7.60694 17.4165Z" fill="#262626"/>
<path d="M5.86787 16.1927C5.85081 16.2189 5.83385 16.2452 5.817 16.2716C4.44926 18.4101 3.82333 20.957 4.01548 23.4678C3.15408 23.3369 2.31829 23.1265 1.51608 22.8439L1.35322 22.7866C1.05613 22.682 0.848541 22.4122 0.823556 22.0982L0.80986 21.9261C0.79866 21.7853 0.792969 21.6432 0.792969 21.5C0.792969 18.6456 3.04412 16.317 5.86787 16.1927Z" fill="#262626"/>
<path d="M27.321 23.4677C27.513 20.9574 26.8874 18.4111 25.5202 16.2728C25.5031 16.246 25.4859 16.2193 25.4686 16.1927C28.2921 16.3173 30.543 18.6458 30.543 21.5C30.543 21.6432 30.5373 21.7853 30.5261 21.9261L30.5124 22.0982C30.4874 22.4122 30.2798 22.682 29.9827 22.7866L29.8199 22.8439C29.0178 23.1264 28.1822 23.3368 27.321 23.4677Z" fill="#262626"/>
</svg>
