<svg width="29" height="26" viewBox="0 0 29 26" fill="none" xmlns="http://www.w3.org/2000/svg">
<path d="M13.2695 2.42156C11.1226 1.04729 8.56968 0.25 5.83203 0.25C4.21955 0.25 2.66941 0.526753 1.22796 1.03623C0.803391 1.18629 0.519531 1.58769 0.519531 2.038V22.2255C0.519531 22.5704 0.68695 22.8939 0.968556 23.093C1.25016 23.2921 1.61091 23.3422 1.93611 23.2273C3.15328 22.7971 4.46411 22.5625 5.83203 22.5625C8.6583 22.5625 11.2483 23.5644 13.2695 25.2339V2.42156Z" fill="#262626"/>
<path d="M15.3945 25.2339C17.4158 23.5644 20.0058 22.5625 22.832 22.5625C24.1999 22.5625 25.5108 22.7971 26.728 23.2273C27.0531 23.3422 27.4139 23.2921 27.6955 23.093C27.9771 22.8939 28.1445 22.5704 28.1445 22.2255V2.038C28.1445 1.58769 27.8607 1.18629 27.4361 1.03623C25.9947 0.526753 24.4445 0.25 22.832 0.25C20.0944 0.25 17.5414 1.04729 15.3945 2.42156V25.2339Z" fill="#262626"/>
</svg>
