<svg width="24" height="32" viewBox="0 0 24 32" fill="none" xmlns="http://www.w3.org/2000/svg">
<path d="M12 0.0625C5.54517 0.0625 0.3125 5.29517 0.3125 11.75C0.3125 16.0719 2.65894 19.8446 6.14231 21.8656C7.11338 22.4291 7.72146 23.2936 7.74898 24.1636C7.76416 24.6435 8.0993 25.0536 8.56657 25.164C9.06436 25.2817 9.57162 25.3743 10.0869 25.4405C10.5454 25.4994 10.9378 25.1322 10.9378 24.67V18.0668C10.4854 18.0168 10.0422 17.9352 9.61042 17.824C9.04214 17.6778 8.70003 17.0985 8.84629 16.5302C8.99256 15.9619 9.57181 15.6198 10.1401 15.7661C10.7334 15.9188 11.3565 16.0003 12.0003 16.0003C12.644 16.0003 13.2671 15.9188 13.8604 15.7661C14.4287 15.6198 15.008 15.9619 15.1542 16.5302C15.3005 17.0985 14.9584 17.6778 14.3901 17.824C13.9583 17.9352 13.5151 18.0168 13.0628 18.0668V24.6699C13.0628 25.1321 13.4552 25.4994 13.9136 25.4404C14.4287 25.3742 14.9358 25.2817 15.4334 25.164C15.9007 25.0536 16.2358 24.6435 16.251 24.1636C16.2785 23.2936 16.8866 22.4291 17.8577 21.8656C21.3411 19.8446 23.6875 16.0719 23.6875 11.75C23.6875 5.29517 18.4548 0.0625 12 0.0625Z" fill="#262626"/>
<path fill-rule="evenodd" clip-rule="evenodd" d="M7.76862 27.1912C7.87798 26.6147 8.434 26.2359 9.01052 26.3453C9.97806 26.5288 10.9773 26.625 12 26.625C13.0227 26.625 14.0219 26.5288 14.9895 26.3453C15.566 26.2359 16.122 26.6147 16.2314 27.1912C16.3407 27.7677 15.962 28.3237 15.3855 28.4331C14.2881 28.6413 13.1563 28.75 12 28.75C10.8438 28.75 9.71192 28.6413 8.61448 28.4331C8.03796 28.3237 7.65925 27.7677 7.76862 27.1912Z" fill="#262626"/>
<path fill-rule="evenodd" clip-rule="evenodd" d="M8.81827 30.654C8.87932 30.0703 9.40193 29.6467 9.98555 29.7078C10.6472 29.777 11.3193 29.8125 12 29.8125C12.6807 29.8125 13.3528 29.777 14.0145 29.7078C14.5981 29.6467 15.1207 30.0703 15.1817 30.654C15.2428 31.2376 14.8192 31.7602 14.2355 31.8212C13.5005 31.8981 12.7547 31.9375 12 31.9375C11.2453 31.9375 10.4995 31.8981 9.76445 31.8212C9.18084 31.7602 8.75721 31.2376 8.81827 30.654Z" fill="#262626"/>
</svg>
