<svg width="16" height="12" viewBox="0 0 16 12" fill="none" xmlns="http://www.w3.org/2000/svg">
<path fill-rule="evenodd" clip-rule="evenodd" d="M0.5 6C0.5 5.37868 1.00368 4.875 1.625 4.875H11.5819L8.34525 1.93594C7.89738 1.5053 7.88342 0.793122 8.31406 0.345254C8.74471 -0.102614 9.45688 -0.116579 9.90475 0.314064L15.1547 5.18906C15.3753 5.40117 15.5 5.69398 15.5 6C15.5 6.30602 15.3753 6.59883 15.1547 6.81094L9.90475 11.6859C9.45688 12.1166 8.74471 12.1026 8.31406 11.6547C7.88342 11.2069 7.89738 10.4947 8.34525 10.0641L11.5819 7.125H1.625C1.00368 7.125 0.5 6.62132 0.5 6Z" fill="#333333"/>
</svg>
