<svg width="141" height="24" viewBox="0 0 141 24" fill="none" xmlns="http://www.w3.org/2000/svg">
<path d="M10.9414 2.9429C11.7141 1.62493 13.6194 1.62493 14.3921 2.9429L16.1179 5.88664C16.3999 6.36761 16.8699 6.70904 17.4144 6.8286L20.7474 7.5603C22.2396 7.8879 22.8284 9.69996 21.8137 10.8421L19.5474 13.3931C19.1771 13.8099 18.9976 14.3624 19.0522 14.9173L19.3862 18.3132C19.5358 19.8337 17.9943 20.9536 16.5945 20.3415L13.468 18.9744C12.9572 18.751 12.3763 18.751 11.8655 18.9744L8.73895 20.3415C7.33915 20.9536 5.79772 19.8337 5.94728 18.3132L6.28134 14.9173C6.33592 14.3624 6.15641 13.8099 5.78612 13.3931L3.51977 10.8421C2.50508 9.69995 3.09386 7.8879 4.58609 7.5603L7.91907 6.8286C8.46364 6.70904 8.93358 6.36761 9.21556 5.88664L10.9414 2.9429Z" fill="#FF8D4D"/>
<path d="M39.9414 2.9429C40.7141 1.62493 42.6194 1.62493 43.3921 2.9429L45.1179 5.88664C45.3999 6.36761 45.8699 6.70904 46.4144 6.8286L49.7474 7.5603C51.2396 7.8879 51.8284 9.69996 50.8137 10.8421L48.5474 13.3931C48.1771 13.8099 47.9976 14.3624 48.0522 14.9173L48.3862 18.3132C48.5358 19.8337 46.9943 20.9536 45.5945 20.3415L42.468 18.9744C41.9572 18.751 41.3763 18.751 40.8655 18.9744L37.7389 20.3415C36.3391 20.9536 34.7977 19.8337 34.9473 18.3132L35.2813 14.9173C35.3359 14.3624 35.1564 13.8099 34.7861 13.3931L32.5198 10.8421C31.5051 9.69995 32.0939 7.8879 33.5861 7.5603L36.9191 6.8286C37.4636 6.70904 37.9336 6.36761 38.2156 5.88664L39.9414 2.9429Z" fill="#FF8D4D"/>
<path d="M68.9414 2.9429C69.7141 1.62493 71.6194 1.62493 72.3921 2.9429L74.1179 5.88664C74.3999 6.36761 74.8699 6.70904 75.4144 6.8286L78.7474 7.5603C80.2396 7.8879 80.8284 9.69996 79.8137 10.8421L77.5474 13.3931C77.1771 13.8099 76.9976 14.3624 77.0522 14.9173L77.3862 18.3132C77.5358 19.8337 75.9943 20.9536 74.5945 20.3415L71.468 18.9744C70.9572 18.751 70.3763 18.751 69.8655 18.9744L66.7389 20.3415C65.3391 20.9536 63.7977 19.8337 63.9473 18.3132L64.2813 14.9173C64.3359 14.3624 64.1564 13.8099 63.7861 13.3931L61.5198 10.8421C60.5051 9.69995 61.0939 7.8879 62.5861 7.5603L65.9191 6.8286C66.4636 6.70904 66.9336 6.36761 67.2156 5.88664L68.9414 2.9429Z" fill="#FF8D4D"/>
<path d="M97.9414 2.9429C98.7141 1.62493 100.619 1.62493 101.392 2.9429L103.118 5.88664C103.4 6.36761 103.87 6.70904 104.414 6.8286L107.747 7.5603C109.24 7.8879 109.828 9.69996 108.814 10.8421L106.547 13.3931C106.177 13.8099 105.998 14.3624 106.052 14.9173L106.386 18.3132C106.536 19.8337 104.994 20.9536 103.595 20.3415L100.468 18.9744C99.9572 18.751 99.3763 18.751 98.8655 18.9744L95.7389 20.3415C94.3391 20.9536 92.7977 19.8336 92.9473 18.3132L93.2813 14.9173C93.3359 14.3624 93.1564 13.8099 92.7861 13.3931L90.5198 10.8421C89.5051 9.69996 90.0939 7.8879 91.5861 7.5603L94.9191 6.8286C95.4636 6.70904 95.9336 6.36761 96.2156 5.88664L97.9414 2.9429Z" fill="#FF8D4D"/>
<path d="M126.941 2.9429C127.714 1.62493 129.619 1.62493 130.392 2.9429L132.118 5.88664C132.4 6.36761 132.87 6.70904 133.414 6.8286L136.747 7.5603C138.24 7.8879 138.828 9.69996 137.814 10.8421L135.547 13.3931C135.177 13.8099 134.998 14.3624 135.052 14.9173L135.386 18.3132C135.536 19.8337 133.994 20.9536 132.595 20.3415L129.468 18.9744C128.957 18.751 128.376 18.751 127.865 18.9744L124.739 20.3415C123.339 20.9536 121.798 19.8337 121.947 18.3132L122.281 14.9173C122.336 14.3624 122.156 13.8099 121.786 13.3931L119.52 10.8421C118.505 9.69995 119.094 7.8879 120.586 7.5603L123.919 6.8286C124.464 6.70904 124.934 6.36761 125.216 5.88664L126.941 2.9429Z" fill="#FF8D4D"/>
</svg>
