<svg width="16" height="12" viewBox="0 0 16 12" fill="none" xmlns="http://www.w3.org/2000/svg">
<path fill-rule="evenodd" clip-rule="evenodd" d="M15.5 6C15.5 6.62132 14.9963 7.125 14.375 7.125H4.41812L7.65475 10.0641C8.10262 10.4947 8.11658 11.2069 7.68594 11.6547C7.25529 12.1026 6.54312 12.1166 6.09525 11.6859L0.845252 6.81094C0.624665 6.59883 0.5 6.30602 0.5 6C0.5 5.69398 0.624665 5.40117 0.845253 5.18906L6.09525 0.314064C6.54312 -0.116578 7.25529 -0.102614 7.68594 0.345254C8.11658 0.793122 8.10262 1.5053 7.65475 1.93594L4.41812 4.875L14.375 4.875C14.9963 4.875 15.5 5.37868 15.5 6Z" fill="#333333"/>
</svg>
