<svg width="57" height="58" viewBox="0 0 57 58" fill="none" xmlns="http://www.w3.org/2000/svg">
<mask id="mask0_57_7015" style="mask-type:luminance" maskUnits="userSpaceOnUse" x="0" y="0" width="57" height="58">
<path d="M56.5716 0.875H0.20459V57.242H56.5716V0.875Z" fill="white"/>
</mask>
<g mask="url(#mask0_57_7015)">
<path d="M31.1121 9.40457C33.4704 9.74968 35.7135 10.67 37.6116 12.1079C39.2221 13.3158 40.4875 14.9262 41.3502 16.7668C42.098 18.3773 42.5006 20.2178 42.4431 22.0009C42.3855 22.8636 42.2705 23.7264 41.9829 24.5316H41.8679L41.9254 23.3238C41.9829 21.5982 41.8104 19.9302 41.1777 18.3198C40.6025 16.5942 39.5672 15.0413 38.3018 13.7759C35.8861 11.4752 32.6651 10.2098 29.3291 10.1523C27.1593 10.1164 25.0109 10.5863 23.0542 11.5248C21.0974 12.4632 19.3861 13.8444 18.0557 15.5589C16.3524 17.8605 15.5356 20.6989 15.755 23.5538L15.8701 24.9918C16.3302 24.9918 16.9629 24.9918 17.308 25.3944L17.1354 25.5669L16.1576 25.6245C15.4674 25.682 14.7772 25.912 14.2596 26.3722C13.6874 26.9865 13.3424 27.778 13.2818 28.6154C12.9942 30.4559 13.972 32.354 15.525 33.3893C16.4452 33.9645 17.5956 34.2521 18.6884 33.9069C18.9185 33.7919 19.2061 33.6194 19.4936 33.7344C19.6662 33.7919 19.7237 33.9645 19.7812 34.137C20.9512 36.4896 22.741 38.4783 24.9578 39.8887C25.4179 40.2914 25.9931 40.6365 26.5683 40.9241C27.6036 41.3842 28.7539 41.7293 29.8468 42.0169L31.6873 42.477C31.9749 42.5345 32.205 42.5345 32.435 42.6496L32.205 42.7071C30.767 42.8221 29.4441 42.5345 28.0637 42.1319C27.3735 41.9594 26.7408 41.7293 26.1081 41.4417C24.3009 40.5212 22.6664 39.2953 21.2767 37.8181L21.3917 39.4286C21.4492 40.4064 21.3917 41.4417 21.0466 42.4195C20.8165 43.1097 20.4139 43.7999 19.9538 44.3751C19.3786 44.9503 18.6884 45.4679 17.9982 45.8705C17.423 46.2732 16.7903 46.6758 16.1576 46.9059L15.2374 47.1934L15.755 46.6758L17.5381 45.5254L18.8034 44.5477C19.7738 43.7215 20.4249 42.5821 20.644 41.3267C20.759 40.5214 20.759 39.7162 20.759 38.8534V37.3005C20.1839 36.4952 19.4936 35.6325 19.2061 34.6547C18.2283 35.1148 17.0204 35.0573 16.0426 34.5972C15.0648 34.1945 14.2021 33.5043 13.5694 32.6991C12.8792 31.7213 12.4765 30.6285 12.3615 29.4781C12.2465 28.3278 12.4765 27.1774 13.2243 26.2571C13.7419 25.682 14.4896 25.2218 15.2374 25.0493C15.0073 24.244 14.8923 23.3813 14.8923 22.5185C14.9396 20.6168 15.3895 18.7466 16.2124 17.0314C17.0353 15.3163 18.2124 13.795 19.6662 12.568C21.2368 11.2528 23.0713 10.2898 25.0459 9.7441C27.0204 9.19837 29.089 9.08259 31.1121 9.40457Z" fill="#262626"/>
<path d="M38.3014 13.7817C39.5668 15.0471 40.6021 16.6001 41.1773 18.3256C41.81 19.9361 41.9825 21.6041 41.925 23.3296L41.8675 24.5375L41.5799 25.4002L41.4649 26.148L41.5799 29.3689C41.5799 30.5768 41.6374 31.7847 41.5224 32.9925L41.3499 35.6958C41.2348 36.6161 40.9472 37.4789 40.5446 38.2841C39.9119 39.3194 39.0492 40.1822 38.0139 40.8149C37.2661 41.275 36.4609 41.5051 35.6556 41.7352L33.47 42.3679L32.4922 42.5404C32.4922 42.5979 32.5497 42.6554 32.6647 42.6554C33.1249 42.943 33.6425 42.943 34.1602 42.8855C33.9876 43.2881 33.9301 43.6908 34.0452 44.1509C34.2177 44.5535 34.6779 44.7836 35.023 44.9561C35.7132 45.3012 36.4034 45.3588 37.0936 45.4738C37.4962 45.8189 37.8988 46.279 38.0139 46.8542C38.1289 47.3143 38.1289 47.7745 37.8988 48.1771C37.6112 48.7523 37.0936 49.2124 36.5184 49.5C35.7707 49.9601 34.9654 50.3052 34.1027 50.5353C29.9034 51.5405 25.5239 51.5208 21.3338 50.4778C20.356 50.2477 19.4358 49.9601 18.573 49.5C17.8828 49.1549 17.2501 48.7523 16.7324 48.2346C16.4449 47.832 16.2148 47.4294 16.1573 46.9117C16.79 46.6817 17.4227 46.279 17.9978 45.8764C18.688 45.4738 19.3782 44.9561 19.9534 44.381C20.4136 43.8058 20.8162 43.1156 21.0462 42.4254C21.3914 41.4476 21.4489 40.4123 21.3914 39.4345L21.2763 37.824L22.5417 39.1469C23.6345 40.0096 24.8424 40.8724 26.1078 41.4476C26.7405 41.7352 27.3732 41.9652 28.0634 42.1378C29.4438 42.5404 30.7667 42.828 32.2046 42.713L32.4347 42.6554C32.2046 42.5404 31.9745 42.5404 31.687 42.4829L29.8464 42.0228C28.7536 41.7352 27.6032 41.3901 26.5679 40.9299L24.8999 39.9521C24.2672 39.4345 23.577 38.9743 23.0018 38.3992C21.673 37.1929 20.5806 35.7495 19.7809 34.1429C19.7233 33.9703 19.6658 33.7978 19.4933 33.7403C19.2057 33.6252 18.9181 33.7978 18.688 33.9128C17.5952 34.2579 16.4449 33.9703 15.5246 33.3952C14.748 32.8825 14.1277 32.1657 13.732 31.3235C13.3362 30.4813 13.1803 29.5463 13.2814 28.6212C13.3389 27.816 13.684 27.0107 14.2592 26.378C14.7769 25.9179 15.4671 25.6878 16.1573 25.6303L17.1351 25.5728L17.3076 25.4002C16.9625 24.9976 16.3298 24.9976 15.8697 24.9976L15.7547 23.5597C15.5352 20.7048 16.352 17.8664 18.0553 15.5648C19.3857 13.8503 21.097 12.4691 23.0538 11.5306C25.0105 10.5922 27.1589 10.1223 29.3287 10.1582C32.6647 10.2157 35.8857 11.4811 38.3014 13.7817Z" fill="#FFDECC"/>
<path d="M41.5808 25.3984C41.7534 25.3984 41.7534 25.6285 41.8109 25.7435C41.9834 26.3762 42.0409 27.0664 42.0985 27.6991L42.2135 28.907C42.271 30.1724 42.3285 31.3802 42.271 32.6456C42.2135 33.8535 42.2135 35.1764 41.9834 36.3842C41.7391 37.6367 41.192 38.8104 40.39 39.8029C39.588 40.7954 38.5553 41.5766 37.382 42.0785C36.5193 42.4811 35.599 42.7111 34.6212 42.8262V43.6889C34.6787 43.8615 34.7938 43.919 34.9088 44.034C35.599 44.3791 36.2317 44.4942 36.9794 44.6667C37.6696 44.8393 38.3598 44.9543 39.05 45.2994C38.8775 45.472 38.6474 45.5295 38.4173 45.5295C38.0147 45.587 37.5546 45.472 37.0944 45.472C36.4042 45.3569 35.714 45.2994 35.0238 44.9543C34.6787 44.7818 34.2186 44.5517 34.046 44.1491C33.931 43.6889 33.9885 43.2863 34.1611 42.8837C33.6434 42.9412 33.1258 42.9412 32.6656 42.6536C32.5506 42.6536 32.4931 42.5961 32.4931 42.5386L33.4709 42.366L35.6565 41.7334C36.4618 41.5033 37.267 41.2732 38.0147 40.8131C39.05 40.1804 39.9128 39.3176 40.5455 38.2823C40.9481 37.4771 41.2357 36.6143 41.3507 35.694L41.5233 32.9907C41.6383 31.7829 41.5808 30.575 41.5808 29.3671L41.4658 26.1462L41.5808 25.3984ZM15.2379 26.9514C15.698 26.9514 16.2157 27.0089 16.5608 27.354C16.8484 27.5841 17.1359 27.8717 17.251 28.2168C17.3085 28.3893 17.251 28.5619 17.1359 28.6769L16.3882 29.1371C15.9856 29.4822 15.9856 30.2299 16.3882 30.575C16.7333 30.8626 17.1935 31.0351 17.5961 31.2077C17.7111 31.2077 17.8837 31.2652 17.9412 31.3802C17.8837 31.4953 17.7686 31.5528 17.6536 31.5528C17.0784 31.5528 16.5033 31.3802 16.0431 31.0351C15.7555 30.8626 15.583 30.575 15.5255 30.2874C15.4104 29.8273 15.4104 29.3096 15.7555 28.907C15.9856 28.5619 16.3882 28.3893 16.7908 28.2168C16.5608 27.9292 16.3882 27.5841 15.9856 27.4691C15.583 27.2965 15.1228 27.2965 14.7202 27.1815L15.2379 26.9514Z" fill="#262626"/>
<path d="M40.0268 23.2734C40.2569 23.2734 40.487 23.2734 40.602 23.446C40.8321 23.6185 40.8321 24.0212 40.5445 24.1937C40.3719 24.3087 40.1994 24.3087 39.9693 24.3087L38.934 24.5388C38.934 24.9414 38.8765 25.4016 38.7039 25.8042C38.5889 26.0918 38.3588 26.3219 38.1287 26.4944C37.7836 26.667 37.381 26.5519 37.151 26.2643L36.9784 25.8042C36.8059 25.9768 36.6908 26.1493 36.4607 26.2643C36.2882 26.3219 36.2307 26.2643 36.2307 26.0918C36.2882 25.7467 36.4607 25.4591 36.6908 25.229C37.2965 24.3902 38.1371 23.7498 39.1065 23.3885L40.0268 23.2734ZM26.1076 24.0787C26.7403 24.0787 27.3155 24.1937 27.8907 24.3087C28.6959 24.5388 29.5012 24.7689 30.1914 25.3441C30.3639 25.5166 30.6515 25.6892 30.709 25.9192C30.709 26.0343 30.709 26.0918 30.594 26.0918L29.9613 25.8042C29.3861 25.5166 28.6959 25.3441 28.0057 25.229C27.8907 25.7467 27.7756 26.2643 27.4305 26.7245C27.2005 26.9545 26.9129 27.0696 26.5678 27.0696C26.1076 27.0121 25.6475 26.782 25.3599 26.4369C25.0723 26.0343 25.0148 25.6316 24.9573 25.114L24.152 25.3441C23.9795 25.4016 23.8069 25.4591 23.6344 25.4016C23.3468 25.3441 23.2318 25.0565 23.2893 24.7689C23.3468 24.5388 23.5769 24.4238 23.8069 24.3663C24.4971 24.0787 25.3599 24.0212 26.1076 24.0787Z" fill="#262626"/>
<path d="M28.2941 17.5791C29.2143 17.6366 30.1921 17.9817 30.9399 18.5569C31.1124 18.7294 31.3425 18.8444 31.4 19.0745C31.4575 19.1895 31.3425 19.3621 31.2274 19.3046C30.7673 19.2471 30.3647 19.017 29.9045 18.902C29.5019 18.7294 29.0418 18.6144 28.5816 18.6144C28.179 18.5569 27.7189 18.6144 27.3163 18.6719C26.4535 18.7869 25.5907 19.1895 24.843 19.5922L23.6352 20.1098L23.5776 20.0523C23.6352 19.8222 23.7502 19.5346 23.9227 19.3621C24.2678 18.7869 24.9005 18.4418 25.4757 18.1542C26.3385 17.7516 27.3163 17.5215 28.2941 17.5791ZM39.4524 17.8091C39.74 17.9242 40.0851 18.0967 40.3152 18.3843C40.5452 18.6144 40.6028 18.902 40.5452 19.2471L39.2223 18.8444C38.8197 18.7294 38.4746 18.7869 38.072 18.7294C37.6694 18.7294 37.2092 18.7869 36.8641 19.017L36.1164 19.4771H35.9439C35.8863 19.3046 35.9439 19.132 36.0589 19.017C36.3465 18.4993 36.8066 18.1542 37.3243 17.9817C38.0145 17.7516 38.7047 17.6366 39.4524 17.8091Z" fill="#262626"/>
<path d="M35.4253 30.6328V30.6903C35.1953 31.1505 34.7926 31.5531 34.275 31.7256C34.1024 31.7832 33.8724 31.7832 33.7573 31.6681V31.4381C34.1599 31.1505 34.6776 30.9204 35.1377 30.7478L35.4253 30.6328Z" fill="#262626"/>
<path fill-rule="evenodd" clip-rule="evenodd" d="M27.3738 32.6428L26.5685 32.4128H26.511C26.396 32.3553 26.2234 32.3553 26.1659 32.4703C26.1084 32.5278 26.1659 32.6428 26.2234 32.6428L26.5685 32.8154L26.6836 32.8729C28.0061 33.5409 29.4215 34.0062 30.8823 34.2533C30.8823 34.656 30.9974 35.0586 31.285 35.4037C31.5725 35.8063 31.9752 36.1514 32.4928 36.324C33.068 36.554 33.7007 36.4965 34.2759 36.2664C34.851 36.0364 35.3112 35.5762 35.5412 35.0011C35.6563 34.771 35.6563 34.4834 35.6563 34.2533L36.6916 33.9082V33.8507L36.8066 33.7357C36.2506 33.7303 35.6946 33.7303 35.1386 33.7357C33.4869 33.8794 31.8234 33.802 30.1921 33.5056L27.949 32.8729L27.8339 32.8154L27.3738 32.6428ZM31.3425 34.3109C31.4 34.886 31.8601 35.3462 32.3778 35.6337C33.068 36.1514 34.2183 35.9213 34.6785 35.1736C34.851 34.9435 34.9085 34.656 34.9661 34.3684V34.3109L33.4706 34.4259L33.5281 34.4834C33.5281 34.656 33.5856 34.771 33.4706 34.9435C33.3556 35.1161 33.1255 35.1161 33.068 34.9435C32.953 34.771 32.953 34.5984 33.0105 34.4259C32.5316 34.3817 32.0523 34.3434 31.5725 34.3109H31.3425Z" fill="#262626"/>
<path d="M25.6486 6.99219H27.9493C30.7676 7.10722 33.5285 7.62488 36.2318 8.25757C37.8423 8.66019 39.3377 9.17785 40.7756 9.98309C41.5234 10.4432 42.3286 11.0184 42.9038 11.7086C43.594 12.4563 44.0541 13.3766 44.2267 14.3544C44.4567 15.5623 44.4567 16.8276 44.0541 18.0355C43.7665 18.8983 43.2489 19.761 42.5012 20.3362C41.4658 21.199 40.143 21.7741 38.8201 21.8317C38.705 21.8892 38.59 21.8317 38.59 21.6591L39.0501 20.7388C38.4337 21.3429 37.6855 21.7957 36.8645 22.0617C36.6344 22.1192 36.2893 22.1768 36.0592 22.0617V21.7741C36.0592 20.9114 36.0017 20.1061 35.7716 19.3009C35.5991 18.3806 35.1389 17.6329 34.7363 16.8276C34.8514 17.6904 34.7938 18.6107 34.6213 19.4734C34.4487 20.2787 34.1036 20.9689 33.5285 21.5441C33.4134 21.7741 33.1258 21.8317 32.8958 21.7166L32.7807 21.314C32.6657 20.6813 32.3781 20.1061 32.0905 19.531C31.5729 18.3806 30.8251 17.4028 29.9624 16.4825C28.703 15.2235 27.2208 14.2093 25.5911 13.4916C25.6757 15.5025 25.4821 17.5155 25.0159 19.4734C24.7858 20.2787 24.4407 21.0839 23.9231 21.7741C23.7505 22.0042 23.5204 22.3493 23.2329 22.4643H22.8302C22.8878 21.7741 22.8878 21.0839 22.7727 20.3937C22.6577 19.761 22.4851 19.0708 22.1975 18.4956C22.025 19.531 21.4498 20.3937 20.7596 21.199C20.242 21.6591 19.7243 22.1192 19.0916 22.4643V26.3755L19.1491 28.101C19.1491 28.2736 18.9766 28.5612 18.804 28.6187C18.5164 28.5612 18.2864 28.4461 18.0563 28.2736C17.3661 27.8135 16.7334 27.2958 16.1582 26.6631C15.2143 25.6155 14.4931 24.387 14.0383 23.0523C13.5835 21.7175 13.4046 20.3043 13.5124 18.8983C13.7045 16.4225 14.6111 14.0557 16.1221 12.0852C17.6332 10.1147 19.6838 8.62515 22.025 7.79743C23.1753 7.33729 24.3832 7.0497 25.6486 6.99219Z" fill="#262626"/>
</g>
</svg>
