<svg width="58" height="58" viewBox="0 0 58 58" fill="none" xmlns="http://www.w3.org/2000/svg">
<mask id="mask0_57_6987" style="mask-type:luminance" maskUnits="userSpaceOnUse" x="0" y="0" width="58" height="58">
<path d="M57.2383 0.875H0.871338V57.242H57.2383V0.875Z" fill="white"/>
</mask>
<g mask="url(#mask0_57_6987)">
<path d="M30.2093 7.75307C31.8198 7.81058 33.4303 8.09817 35.0408 8.61583C37.2921 9.25141 39.2977 10.555 40.7925 12.3545C41.8853 13.7924 42.5756 15.5179 42.8056 17.3009C43.1161 19.2224 43.1548 21.178 42.9207 23.1102L42.6331 25.0658L42.403 26.2161C42.3455 26.3312 42.3455 26.3312 42.2304 26.3312C42.1154 26.1011 42.1154 25.871 42.1154 25.641C42.0579 24.7782 42.1729 23.9729 42.2304 23.1102C42.288 21.7298 42.403 20.3494 42.288 18.9689L41.9429 16.3807C41.5402 14.7702 40.7925 13.2747 39.6422 12.0669C38.6069 11.0316 37.3415 10.1688 36.0186 9.59362C34.7532 9.07596 33.4878 8.73086 32.1649 8.50079C31.1296 8.32824 30.0943 8.27072 29.059 8.27072C26.5067 8.22892 23.9818 8.80098 21.6968 9.93872C20.949 10.4564 20.2588 11.0891 19.6837 11.7793C17.9138 14.1025 16.8192 16.869 16.5202 19.7742C16.4627 21.1546 16.5202 22.4775 16.9803 23.8004L17.383 24.6632L18.0732 24.7207L18.1307 24.8932C17.9581 25.0083 17.7281 25.0083 17.498 25.0658C16.9228 25.1808 16.3477 25.4109 15.83 25.756C15.4274 26.0436 15.0248 26.3887 14.7947 26.8488C14.5071 27.424 14.6221 28.1142 14.7372 28.7469C15.0248 29.8397 15.715 30.875 16.6352 31.5652C17.2679 32.0829 18.0732 32.3705 18.8784 32.4855C19.4536 32.6005 20.0288 32.4855 20.6039 32.428C20.8915 32.6581 21.0641 33.1182 21.2366 33.4058L22.2719 34.9588C23.2077 36.2886 24.5345 37.2939 26.0681 37.8346C27.3335 38.3523 28.6564 38.6399 29.9793 38.9274L32.3375 39.3876L33.3153 39.6752V39.9052H32.6251C31.3321 39.8331 30.045 39.6794 28.7714 39.4451C27.0609 39.1047 25.4248 38.4619 23.9399 37.547C23.3073 37.1444 22.7321 36.6268 22.2719 35.9941C22.6703 38.3914 22.3501 40.853 21.3517 43.0687C20.4889 44.6217 19.051 45.8295 17.3255 46.3472C17.1529 46.4047 16.9228 46.4622 16.7503 46.4047C16.6352 46.4047 16.6352 46.3472 16.6352 46.2321C16.6928 46.0596 16.8653 45.9446 16.9803 45.887C17.6706 45.4269 18.4758 45.0818 19.166 44.5641C19.9137 43.9315 20.5464 43.2412 20.949 42.3785C21.2941 41.5157 21.5242 40.5379 21.6392 39.5601C21.7543 38.8124 21.8118 38.0647 21.7543 37.2594L21.5242 35.0738L20.4889 33.0032L19.3961 33.2332C18.5518 33.2578 17.7147 33.0707 16.9613 32.6889C16.2078 32.3072 15.5618 31.7429 15.0823 31.0476C14.3325 30.0977 13.927 28.9217 13.9319 27.7116C13.9319 27.1939 14.1045 26.6763 14.3921 26.2736C14.6797 25.871 15.0823 25.5259 15.4849 25.2958C15.7725 25.0658 16.1751 24.9507 16.5202 24.8357L16.0026 23.4553C15.715 22.1899 15.715 20.867 15.8875 19.6016C16.2642 16.4607 17.5202 13.49 19.5111 11.0316C20.0288 10.4564 20.5464 9.93872 21.1791 9.5361C21.5817 9.30603 21.9844 9.24852 22.3295 9.01845C24.8027 7.92562 27.506 7.58051 30.2093 7.75307Z" fill="#262626"/>
<path d="M29.0583 8.26915C31.4482 8.18026 33.8273 8.63248 36.0179 9.59205C37.3408 10.1672 38.6062 11.03 39.6415 12.0653C40.7918 13.2732 41.5396 14.7686 41.9422 16.3791L42.2873 18.9674C42.4023 20.3478 42.2873 21.7282 42.2298 23.1086C42.1723 23.9714 42.0572 24.7766 42.1147 25.6394C42.1147 25.8695 42.1147 26.0995 42.2298 26.3296L42.1723 27.4799C42.0572 27.7675 42.0572 28.0551 42.0572 28.4002C41.9422 29.7806 41.9422 31.2186 41.7121 32.6565C41.6546 33.3467 41.5396 34.0944 41.252 34.7271C41.0794 35.2448 40.7918 35.7049 40.3892 36.1075C39.699 36.8553 38.8363 37.4879 37.916 38.0056C36.8231 38.6383 35.6728 38.9259 34.58 39.386C34.2924 39.5011 34.0048 39.6161 33.8322 39.8462C34.2924 39.9037 34.695 39.8462 35.1551 39.7311C34.8676 40.4213 34.81 41.1115 34.81 41.8017C34.81 42.0893 34.7525 42.4344 34.8676 42.722C35.0401 43.0096 35.3277 43.2397 35.6153 43.4122L37.6284 44.16C38.8938 44.6201 40.1016 45.1953 41.367 45.7129C41.482 45.943 41.6546 46.1155 41.7121 46.4031C42.0572 47.0358 42.1147 47.726 41.8847 48.4162C41.5971 49.164 41.0219 49.7966 40.3317 50.1993C39.4114 50.832 38.2611 51.2921 37.1683 51.5797C32.696 52.5352 28.0592 52.3971 23.6517 51.1771C22.5013 50.7744 21.351 50.3718 20.3157 49.7966C19.5104 49.3365 18.6477 48.7613 18.015 48.0136C17.6699 47.5535 17.3823 46.9208 17.3248 46.3456C18.6716 45.9345 19.8636 45.1278 20.7458 44.0302C21.6279 42.9326 22.1595 41.595 22.2713 40.1913C22.5013 38.8108 22.5013 37.3729 22.2713 35.9925C22.7314 36.6252 23.3066 37.1428 23.9393 37.5455L25.4922 38.3507C27.7472 39.3235 30.1691 39.8509 32.6244 39.9037H33.3146V39.6736L32.3368 39.386L29.9786 38.9259C28.6557 38.6383 27.3328 38.3507 26.0674 37.833C25.3197 37.4879 24.5144 37.0853 23.8242 36.6252C23.2491 36.1075 22.7314 35.5899 22.2713 34.9572L21.236 33.4042C21.0634 33.1166 20.8909 32.6565 20.6033 32.4264C20.0281 32.4839 19.4529 32.599 18.8777 32.4839C18.0725 32.3689 17.2673 32.0813 16.6346 31.5637C15.7154 30.8526 15.0499 29.8643 14.7365 28.7453C14.6215 28.1126 14.5064 27.4224 14.794 26.8472C15.0241 26.3871 15.4267 26.042 15.8293 25.7544C16.347 25.4093 16.9222 25.1792 17.4973 25.0642C17.7274 25.0067 17.9575 25.0067 18.13 24.8917L18.0725 24.7191L17.3823 24.6616L16.9797 23.7988C16.5195 22.4759 16.462 21.153 16.5771 19.7726C16.8592 16.8731 17.9337 14.1072 19.683 11.7777C20.2582 11.0875 20.9484 10.4548 21.6961 9.93716C23.9761 8.77951 26.5013 8.18767 29.0583 8.21164V8.26915Z" fill="#FFDECC"/>
<path d="M16.6936 27.1406C16.9237 27.1406 17.0962 27.1406 17.3263 27.2557C17.6139 27.3132 17.959 27.4857 18.1315 27.7158C18.2466 27.8884 18.2466 28.1184 18.1315 28.291C17.8439 28.6361 17.4413 28.8661 17.2113 29.2112C17.5564 29.4413 18.0165 29.5564 18.4191 29.7289C18.6492 29.7864 18.8793 29.9015 19.0518 30.074L19.1093 30.2466L18.6492 30.1315L17.2688 29.7289C17.0387 29.6714 16.8086 29.5564 16.7511 29.3263C16.6936 29.1537 16.8086 28.9237 16.9237 28.7511L17.7864 28.0034C17.5564 27.6008 16.9237 27.5432 16.6936 27.1406ZM42.1738 27.4857L42.2888 27.6583L42.4038 28.5786C42.5232 30.2848 42.4847 31.9984 42.2888 33.6976C42.1738 34.3303 42.0012 35.0205 41.7136 35.5957C40.1876 37.5923 38.044 39.0281 35.6168 39.6794C35.5593 40.4846 35.4442 41.4624 35.5018 42.3827L35.7894 42.6703C36.2495 43.0154 36.8247 43.188 37.3423 43.3605C38.6877 43.79 39.9958 44.3286 41.2535 44.971C41.6561 45.2011 42.0012 45.4886 42.2888 45.8337C42.0012 45.8913 41.7136 45.7762 41.3685 45.7187C40.1031 45.2011 38.8953 44.6259 37.6299 44.1657L35.6168 43.418C35.3292 43.2455 35.0416 43.0154 34.8691 42.7278C34.754 42.4402 34.8116 42.0951 34.8116 41.8075C34.8116 41.1173 34.8691 40.4271 35.1567 39.7369C34.6965 39.852 34.2939 39.9095 33.8338 39.852C34.0063 39.6219 34.2939 39.5068 34.5815 39.3918C35.6743 38.9317 36.8247 38.6441 37.9175 38.0114C38.8378 37.4937 39.7005 36.8611 40.3907 36.1133C40.7934 35.7107 41.0809 35.2506 41.2535 34.7329C41.5411 34.1002 41.6561 33.3525 41.7136 32.6623C41.9437 31.2244 41.9437 29.7864 42.0587 28.406C42.0587 28.0609 42.0587 27.7733 42.1738 27.4857Z" fill="#262626"/>
<path d="M41.5977 23.625L41.4827 24.0276C41.3101 24.3152 41.1376 24.5453 40.85 24.7178C40.5624 24.8904 40.2173 24.9479 39.8722 25.0054L38.8369 25.1205C38.5493 25.1205 38.3767 25.293 38.2617 25.4656L37.8591 25.8682C37.7441 25.9257 37.5715 25.8107 37.629 25.6956C37.6865 25.2355 38.0316 24.8904 38.2617 24.5453C38.4343 24.3727 38.6643 24.1427 38.9519 24.1427L40.6774 23.8551C40.965 23.7976 41.2526 23.625 41.5977 23.625ZM24.0549 23.8551C24.7451 23.7976 25.2628 24.0276 25.8955 24.0851C26.7582 24.2002 27.621 24.3152 28.4838 24.3152L29.8642 24.4302C30.3243 24.4878 30.842 24.4302 31.2446 24.6603C31.6472 24.8904 31.9348 25.2355 32.1649 25.5806C32.2224 25.6956 32.2799 25.8107 32.1649 25.9832C32.1074 26.0407 31.9923 25.9832 31.9348 25.9257C31.7047 25.8107 31.5322 25.5806 31.3021 25.5231L30.6119 25.4656L29.0014 25.408L27.736 25.3505C27.1609 25.293 26.5857 25.293 26.0105 25.0629C25.6079 24.9479 25.3203 24.7178 24.9177 24.5453L24.2275 24.0276C24.1124 23.9701 24.0549 23.9701 24.0549 23.8551Z" fill="#262626"/>
<path d="M30.6689 16.9549C31.0715 16.9549 31.4741 17.0699 31.7617 17.3C31.9918 17.415 32.1643 17.53 32.2218 17.7601C32.2794 17.8751 32.2218 18.0477 32.1068 18.1052C31.8192 18.1627 31.5316 17.9902 31.3016 17.9327L30.7839 17.8751C30.0362 17.8176 29.2885 17.9327 28.5407 18.1052C27.2821 18.4613 26.1084 19.0678 25.0897 19.8882C24.8596 20.0033 24.572 20.1758 24.2844 20.1183C24.1119 20.1183 24.1119 19.8882 24.1694 19.7157C24.2269 19.3706 24.572 19.083 24.8596 18.7954C25.4348 18.2778 26.1825 17.9327 26.8727 17.6451C28.0231 17.1274 29.4035 16.8398 30.6689 16.9549ZM39.6416 17.0699C40.0442 16.9549 40.4468 17.0124 40.7919 17.2425C41.022 17.415 41.2521 17.5876 41.3096 17.8751C41.3671 18.0477 41.3671 18.2202 41.1945 18.2778C41.022 18.3353 40.7919 18.3353 40.6194 18.2202C40.3318 18.0477 40.1017 17.8751 39.7566 17.8751C39.469 17.8751 39.1814 17.9327 38.9514 18.0477C38.4912 18.2778 38.0311 18.6804 37.801 19.1405L37.4559 19.6582H37.2834V19.3131C37.3984 18.8529 37.686 18.3928 38.0311 18.0477C38.4337 17.5876 39.0089 17.1849 39.6416 17.0699Z" fill="#262626"/>
<path d="M14.1619 27.0248C14.4495 27.0248 14.737 26.9673 14.9671 27.1399C15.1397 27.2549 15.2547 27.4274 15.1972 27.6575C15.0821 27.8876 14.8521 28.0601 14.5645 28.0601H13.6442C13.3566 28.0026 13.1266 27.8876 13.0115 27.6575C12.954 27.4274 13.1266 27.2549 13.2991 27.1399C13.5867 27.0248 13.8743 27.0823 14.1619 27.0248ZM14.9096 28.3477C15.0821 28.4052 15.3122 28.5203 15.3122 28.7503C15.3122 28.9229 15.2547 29.0955 15.0821 29.153C14.7946 29.383 14.4495 29.383 14.1044 29.4981C13.8168 29.5556 13.5292 29.6131 13.2991 29.4406C13.069 29.268 13.1266 28.9229 13.2991 28.7503C13.5292 28.5203 13.7593 28.5203 14.0468 28.4628C14.3344 28.4052 14.622 28.2902 14.9096 28.3477ZM19.0508 31.3386H19.511C19.6835 31.3961 19.8561 31.5687 19.8561 31.7988C19.8561 32.0864 19.626 32.3164 19.3384 32.3739C19.0508 32.489 18.8208 32.2589 18.7057 32.0288C18.6482 31.7412 18.7633 31.3961 19.0508 31.3386Z" fill="#262626"/>
<path d="M36.6512 29.1484C36.6512 29.321 36.5361 29.4935 36.4211 29.6661C36.191 30.0112 35.7884 30.2413 35.3858 30.3563C35.0982 30.4138 34.8681 30.2413 34.6381 30.3563C34.408 30.3563 34.1779 30.4138 33.9478 30.2988C33.8328 30.2413 33.8328 30.0687 33.9478 29.9537C34.1204 29.7236 34.408 29.5511 34.6381 29.5511C34.8681 29.4935 35.0407 29.4935 35.2132 29.6661L35.2707 30.0687C35.5583 29.9537 35.6734 29.7811 35.9034 29.6086L36.6512 29.1484Z" fill="#262626"/>
<path d="M43.0924 27.9461C43.61 27.9461 44.0702 28.1762 44.3578 28.5788C44.4922 28.7555 44.59 28.9572 44.6455 29.1721C44.7009 29.387 44.713 29.6108 44.6808 29.8305C44.6487 30.0501 44.573 30.2611 44.4583 30.4511C44.3436 30.6411 44.1921 30.8063 44.0127 30.937C44.4728 31.0521 44.9329 31.3397 45.278 31.6848C45.7957 32.3175 46.1983 33.1802 46.1408 34.043C46.0833 34.5031 45.9107 34.9057 45.6807 35.2508C45.2205 35.9986 44.4728 36.5162 43.6676 36.8613L44.1277 37.379C44.3002 37.7816 44.3578 38.1842 44.3578 38.6444C44.3002 39.3346 44.0127 40.0248 43.495 40.5424C42.9009 41.1105 42.1288 41.4559 41.3093 41.5202C40.7342 41.5777 40.1015 41.5777 39.5263 41.4052C39.4688 41.8078 39.3538 42.268 39.1812 42.6706C38.7937 43.3541 38.1773 43.8788 37.4408 44.1524C36.7042 44.426 35.8948 44.4308 35.155 44.166C34.4648 43.8784 33.8896 43.3608 33.5445 42.7856C32.6818 43.3033 31.7615 43.4758 30.7837 43.4758C29.9784 43.5333 29.0006 43.4758 28.3104 43.0732C27.8503 42.9006 27.5627 42.5555 27.2751 42.2104C27.1026 42.0379 26.9875 41.8653 26.93 41.5777C26.2973 42.0954 25.4346 42.2104 24.6868 42.0954C24.1117 41.9228 23.594 41.6353 23.3064 41.1176C23.0188 40.7725 22.9613 40.2548 22.9613 39.7947H22.1561C21.6959 39.7372 21.2358 39.5071 20.8332 39.2195C20.2005 38.6444 19.6828 37.8966 19.3377 37.0914C19.2227 36.7463 19.1077 36.4012 19.1077 35.9986C19.1077 35.3659 19.3377 34.7332 19.7404 34.2155C19.5678 33.8129 19.5103 33.4103 19.6253 33.0077C19.7979 32.3175 20.3155 31.7423 20.8907 31.3972C21.4084 31.0521 22.041 30.937 22.6737 30.9946C22.7888 30.6495 22.9613 30.4194 23.2489 30.1893C23.8816 29.6141 24.6868 29.269 25.5496 29.269C26.1248 29.269 26.6424 29.3266 27.1026 29.5566C27.3326 29.2115 27.6202 29.039 27.9653 28.9239C28.598 28.6364 29.2882 28.6939 29.9209 28.9815C31.0138 29.3841 31.8765 30.0168 32.9118 30.4194C33.1994 30.6495 33.602 30.5919 34.0047 30.6495C34.4073 30.707 34.8099 30.6495 35.2125 30.5919C35.3851 30.5344 35.6151 30.5344 35.7302 30.4194L36.823 29.8442L37.9733 28.9815C38.4335 28.6939 39.0087 28.4063 39.5838 28.4638C39.8139 28.5213 39.9865 28.6364 40.1015 28.8089C40.9894 28.2279 42.0315 27.9274 43.0924 27.9461Z" fill="#262626"/>
<path d="M29.2323 33.2882C29.4048 33.2307 29.5198 33.2882 29.5198 33.4032C29.5198 33.5758 29.3473 33.7483 29.1747 33.8058C29.0022 33.6333 29.0597 33.4032 29.2323 33.2882ZM30.6702 33.9784L32.7408 34.381L34.4663 34.4961C34.869 34.5536 35.2141 34.4961 35.5592 34.6111C35.5016 34.7261 35.3866 34.7836 35.2141 34.8412C33.788 35.0658 32.329 34.9475 30.9578 34.4961C30.7852 34.4385 30.5552 34.3235 30.4976 34.1509C30.4401 34.0359 30.5552 33.9209 30.6702 33.9784Z" fill="#FFDECC"/>
<path d="M28.9445 7.00631C30.5687 7.00954 32.188 7.18304 33.776 7.52397C34.4087 7.69652 34.9839 7.81155 35.559 8.04162L37.5721 8.78935C38.1473 8.9619 38.665 9.307 39.2401 9.53707L40.1604 9.88218L41.8284 10.2273C42.116 10.3423 42.3461 10.5149 42.4611 10.8025C42.6337 11.1476 42.5762 11.4927 42.4611 11.8378L43.0363 12.1254C43.3239 12.4129 43.4389 12.8156 43.3239 13.2182C43.2088 13.4483 42.9788 13.6208 42.7487 13.7358C41.5248 14.3635 40.1151 14.527 38.78 14.196L36.2492 13.6208L32.6832 12.643C29.6344 11.6 26.3161 11.661 23.3079 12.8156L23.0778 13.6208C22.8477 14.5411 22.6752 15.4614 22.6176 16.3816V17.3594L22.5601 17.8196C22.3876 18.2222 22.0425 18.6248 21.8124 19.0274C21.1222 20.0627 20.4895 21.1556 19.9718 22.2484L19.8568 23.0536V25.2968C19.8568 25.5844 19.9718 25.8145 19.7993 26.0445C18.9365 25.9295 18.0738 25.6994 17.1535 25.4694C17.0385 25.4694 16.8659 25.4694 16.7509 25.3543L16.3483 24.8367C16.1182 24.6641 16.0607 24.319 15.9456 24.0314C15.543 22.8236 15.428 21.4432 15.428 20.1203C15.428 18.5098 15.7156 16.9568 16.0032 15.4038C16.2332 14.5411 16.5783 13.7358 16.9809 12.9881C17.5561 11.8378 18.3614 10.86 19.2816 9.99721C20.2019 9.07694 21.2947 8.44425 22.5026 7.98411C24.5676 7.24928 26.7545 6.91735 28.9445 7.00631ZM18.3038 26.0445C18.879 26.0445 19.4542 26.2171 19.9718 26.3321C20.2019 26.3896 20.4895 26.5047 20.6621 26.6772C20.8346 26.7923 20.7771 27.0223 20.6045 27.0799C20.0869 27.2524 19.6843 27.0799 19.2241 26.9648C18.879 26.8498 18.4189 26.7348 18.0738 26.5047C17.9587 26.4472 17.7862 26.2746 17.9012 26.1596C18.0163 26.0445 18.1888 26.0445 18.3038 26.0445ZM43.4389 32.7741C43.4964 32.8891 43.4964 32.9466 43.3814 33.0617L43.4389 32.7741Z" fill="#262626"/>
</g>
</svg>
