<svg width="60" height="60" viewBox="0 0 60 60" fill="none" xmlns="http://www.w3.org/2000/svg">
<rect x="1" y="1" width="58" height="58" rx="9" fill="#FFDECC"/>
<rect x="1" y="1" width="58" height="58" rx="9" stroke="#262626" stroke-width="2"/>
<g clip-path="url(#clip0_121_1859)">
<path d="M25.5502 39.7502C34.6045 39.7502 39.5583 32.2469 39.5583 25.7421C39.5583 25.5312 39.5536 25.3155 39.5442 25.1046C40.5079 24.4077 41.3395 23.5445 42 22.5555C41.1025 22.9548 40.1496 23.2156 39.1739 23.329C40.2013 22.7132 40.9705 21.7457 41.3391 20.606C40.3726 21.1788 39.3156 21.5829 38.2134 21.8009C37.4708 21.0118 36.489 20.4894 35.4197 20.3143C34.3504 20.1392 33.2532 20.3213 32.2977 20.8323C31.3423 21.3434 30.5818 22.1549 30.1338 23.1416C29.6859 24.1282 29.5754 25.2349 29.8195 26.2905C27.8625 26.1923 25.9479 25.6839 24.2 24.7983C22.452 23.9127 20.9097 22.6697 19.673 21.1498C19.0444 22.2335 18.8521 23.5159 19.135 24.7363C19.418 25.9568 20.1551 27.0237 21.1964 27.7202C20.4146 27.6954 19.65 27.4849 18.9656 27.1062V27.1671C18.9649 28.3044 19.3581 29.4068 20.0783 30.287C20.7985 31.1672 21.8013 31.7708 22.9162 31.9952C22.1921 32.1934 21.432 32.2222 20.6948 32.0796C21.0095 33.0577 21.6216 33.9131 22.4458 34.5266C23.27 35.14 24.2651 35.4808 25.2923 35.5015C23.5484 36.8714 21.3942 37.6144 19.1766 37.6109C18.7833 37.6103 18.3904 37.5861 18 37.5387C20.2529 38.984 22.8735 39.7516 25.5502 39.7502Z" fill="#262626"/>
</g>
<defs>
<clipPath id="clip0_121_1859">
<rect width="24" height="24" fill="white" transform="translate(18 18)"/>
</clipPath>
</defs>
</svg>
